<!DOCTYPE svg PUBLIC "-//W3C//DTD SVG 1.1//EN" "http://www.w3.org/Graphics/SVG/1.1/DTD/svg11.dtd">
<svg version="1.1" xmlns="http://www.w3.org/2000/svg" xmlns:xlink="http://www.w3.org/1999/xlink" width="16" height="16" viewBox="0 0 1024 1024">
<path d="M896 800h-96v-32c17.696 0 32-14.336 32-32 0-17.696-14.304-32-32-32h-64c-17.696 0-32 14.304-32 32 0 17.664 14.304 32 32 32v32h-416v-32c17.696 0 32-14.336 32-32 0-17.696-14.304-32-32-32h-64c-17.696 0-32 14.304-32 32 0 17.664 14.304 32 32 32v32h-128c-35.328 0-64-28.672-64-64v-448c0-35.328 28.672-64 64-64h768c35.328 0 64 28.672 64 64v448c0 35.328-28.672 64-64 64zM320 313.984c-38.656 0-70.016 41.184-70.016 92s31.36 92 70.016 92 70.016-41.184 70.016-92-31.36-92-70.016-92zM431.68 534.016c-17.248-11.488-66.912-19.136-66.912-19.136s-32.192 34.4-45.856 34.4c-13.696 0-45.888-34.4-45.888-34.4s-49.664 7.616-66.88 19.136c-17.248 11.456-24.864 72.352-24.864 72.352h275.68c0.032-0.032-5.024-58.88-25.28-72.352zM832 352h-288v32h288v-32zM832 416h-288v32h288v-32zM832 480h-288v32h288v-32zM832 544h-288v32h288v-32z"></path>
</svg>
