<svg xmlns="http://www.w3.org/2000/svg" width="16" height="16" viewBox="-3 0 28 28"><path d="M22 19.4q0 .4-.2 1t-.3 1q-.3 1-2 1.8-1.4.8-2.8.8-.4 0-.8 0t-1-.2-.8-.3-.8-.3-.8-.3q-1.5-.6-2.7-1.4-2-1.2-4.3-3.3T2.4 14q-.8-1-1.3-2.6 0-.2-.2-.8t-.3-.8T.3 9 0 8t0-.7q0-1.4.8-3 1-1.5 1.7-1.8.3-.2 1-.3t1-.2H5q.2 0 .8 1.2.2.3.5 1t.5 1 .5.7q0 0 .3.3T8 7t0 .3q0 .3-.4.8t-1 1-1 .8-.4.7q0 0 0 .3t.2.4.2.3.2.3Q7 14 8.5 15.5t3.7 2.7l.3.2.3.2.4.2h.3q.3 0 .7-.4t1-1 .7-1 .7-.4q.2 0 .5 0t.5.4.4.3l1 .5 1 .6.8.4 1.2.8v.4z"/></svg>