<?xml version="1.0" encoding="UTF-8"?>
<svg width="6px" height="24px" viewBox="0 0 6 24" version="1.1" xmlns="http://www.w3.org/2000/svg" xmlns:xlink="http://www.w3.org/1999/xlink">
    <!-- Generator: Sketch 48.1 (47250) - http://www.bohemiancoding.com/sketch -->
    <title>icon-fa-linkedin</title>
    <desc>Created with Sketch.</desc>
    <defs></defs>
    <g id="Page-1" stroke="none" stroke-width="1" fill="none" fill-rule="evenodd">
        <g id="icon-fa-linkedin" fill="#000000" fill-rule="nonzero">
            <path d="M5.5,7.8 L5.5,23.2 L0.3,23.2 L0.3,7.8 L5.5,7.8 Z M5.8,3 C5.8,3.66666667 5.53333333,4.33333333 5,5 C4.46666667,5.66666667 3.8,5.9 3,5.7 L2.8,5.7 C2,5.7 1.33333333,5.43333333 0.8,4.9 C0.266666667,4.36666667 -1.48029737e-16,3.73333333 0,3 C0,2.2 0.266666667,1.53333333 0.8,1 C1.33333333,0.466666667 2,0.233333333 2.8,0.3 C3.6,0.366666667 4.33333333,0.6 5,1 C5.66666667,1.4 5.93333333,2.06666667 5.8,3 Z" id="Shape"></path>
        </g>
    </g>
</svg>