<?xml version="1.0" encoding="UTF-8"?>
<svg width="32px" height="32px" viewBox="0 0 32 32" version="1.1" xmlns="http://www.w3.org/2000/svg" xmlns:xlink="http://www.w3.org/1999/xlink">
    <!-- Generator: Sketch 53.1 (72631) - https://sketchapp.com -->
    <title>icon-fa-cv</title>
    <desc>Created with Sketch.</desc>
    <g id="icon-fa-cv" stroke="none" stroke-width="1" fill="none" fill-rule="evenodd">
        <g id="Group" transform="translate(-0.500000, -17.000000)" fill="#282828" fill-rule="nonzero">
            <path d="M9.768,24.836 C11.5160087,24.836 13.0739932,25.139997 14.442,25.748 L13.454,30.46 L12.998,30.65 C12.3139966,30.320665 11.7250025,30.0800008 11.231,29.928 C10.7369975,29.7759992 10.2493357,29.7 9.768,29.7 C8.7546616,29.7 7.98833593,30.0419966 7.469,30.726 C6.94966407,31.4100034 6.69,32.4233266 6.69,33.766 C6.69,37.0593498 7.84265514,38.706 10.148,38.706 C11.0600046,38.706 12.2379928,38.4400027 13.682,37.908 L14.138,38.25 L13.53,42.772 C12.0099924,43.2026688 10.4393414,43.418 8.818,43.418 C6.33532092,43.418 4.40367357,42.6263413 3.023,41.043 C1.64232643,39.4596588 0.952,37.236681 0.952,34.374 C0.952,31.3846517 1.72465894,29.0476751 3.27,27.363 C4.81534106,25.6783249 6.9813194,24.836 9.768,24.836 Z M21.016,28.294 L23.144,37.414 L23.448,37.414 L26.032,28.636 L26.678,25.216 L31.922,25.216 L26.26,43 L19.724,43 L14.936,25.33 L20.522,25.102 L21.016,28.294 Z" id="cv"></path>
        </g>
    </g>
</svg>