<?xml version="1.0" encoding="utf-8"?>
<svg version="1.1" xmlns="http://www.w3.org/2000/svg" viewBox="0 0 500 500">
<style type="text/css">
	.st{fill:none;stroke:#FFFFFF;stroke-width:5;stroke-linecap:round;stroke-miterlimit:10;}
	.st0{fill:#FFFFFF;}
</style>
<rect fill="red" x="0" y="0" height="400" width="400"/>
<g><!-- FinnoScore -->
	<path class="st0" d="M46.4,64.4l3.8-3.5H44v-1.8h8.8v1.8l-3.7,3.4c1.9,0,4,1.3,4,3.9c0,2.2-1.7,4.2-4.7,4.2c-3,0-4.7-2-4.8-4.1 l1.9-0.4c0.1,1.7,1.3,2.8,2.9,2.8c1.8,0,2.7-1.1,2.7-2.4c0-1.7-1.4-2.4-2.6-2.4c-0.4,0-0.8,0.1-1.1,0.2L46.4,64.4z"/>
	<path class="st0" d="M63.8,61.1c-0.5-0.3-1.3-0.6-2.3-0.6c-2.7,0-4.4,2-4.6,4.6c0.5-0.9,1.7-1.7,3.4-1.7c2.6,0,4.4,1.6,4.4,4.4 c0,2.8-2.3,4.4-4.8,4.4c-2.5,0-5.1-1.7-5.1-6c0-4.8,2.9-7.6,6.7-7.6c1.2,0,2.2,0.3,2.8,0.7L63.8,61.1z M60,70.7 c1.5,0,2.8-1,2.8-2.7c0-1.7-1.3-2.7-2.8-2.7c-1.5,0-2.8,1-2.8,2.7C57.2,69.7,58.6,70.7,60,70.7z"/>
	<path class="st0" d="M67.6,60.9c0.8-1.3,2.1-2.1,4-2.1c1.8,0,3.1,0.8,4,2.1c0.9,1.3,1.2,2.9,1.2,4.7s-0.3,3.4-1.2,4.7 c-0.8,1.3-2.1,2.1-4,2.1c-1.8,0-3.1-0.8-4-2.1c-0.9-1.3-1.2-2.9-1.2-4.7S66.8,62.2,67.6,60.9z M69.6,69.8c0.5,0.5,1.1,0.8,2.1,0.8 c0.9,0,1.6-0.3,2.1-0.8c0.8-0.8,1.1-2.2,1.1-4.2s-0.4-3.4-1.1-4.2c-0.5-0.5-1.1-0.8-2.1-0.8c-0.9,0-1.6,0.3-2.1,0.8 c-0.8,0.8-1.1,2.2-1.1,4.2S68.8,69,69.6,69.8z"/>
	<path class="st0" d="M81.5,58.9c1.7,0,3.2,1.4,3.2,3.1c0,1.8-1.5,3.2-3.2,3.2c-1.7,0-3.2-1.4-3.2-3.2 C78.3,60.3,79.7,58.9,81.5,58.9z M81.5,63.6c0.9,0,1.5-0.7,1.5-1.6c0-0.9-0.7-1.6-1.5-1.6c-0.9,0-1.5,0.7-1.5,1.6 C79.9,63,80.6,63.6,81.5,63.6z"/>
	<path class="st" d="M64,125.5c33.9,0,61.5-27.6,61.5-61.5S97.9,2.5,64,2.5S2.5,30.1,2.5,64S30.1,125.5,64,125.5z"/>
	<line class="st" x1="19" y1="64" x2="2.5" y2="64"/>
	<line class="st" x1="64" y1="19" x2="64" y2="2.5"/>
	<line class="st" x1="125.5" y1="64" x2="109" y2="64"/>
	<line class="st" x1="64" y1="125.5" x2="64" y2="109"/>
</g>
<g><!-- FinnoPretation -->
	<path class="st" d="M64,125.5c33.9,0,61.5-27.6,61.5-61.5S97.9,2.5,64,2.5S2.5,30.1,2.5,64S30.1,125.5,64,125.5z"/>
	<line class="st" x1="64" y1="41" x2="64" y2="87"/>
	<line class="st" x1="87" y1="64" x2="41" y2="64"/>
</g>
<g><!-- FinnoProject -->
	<path class="st" d="M42.9,18.2C18.7,27.1,2.5,50.3,2.5,76c0,33.9,27.6,61.5,61.5,61.5s61.5-27.6,61.5-61.5 c0-25.7-16.2-48.9-40.4-57.8"/>
	<line class="st" x1="64" y1="2.5" x2="64" y2="48.5"/>
</g>
</svg>
