<svg xmlns="http://www.w3.org/2000/svg" width="223" height="29" viewBox="0 0 446 58"><path fill="#231F20" d="M0 2.084v54.758h10.74V35.526h21.255v-9.81H10.663V12.202h23.96V2.085M42.576 18.842h10.277v38H42.576v-38zm5.1-18.84c3.554 0 6.336 2.856 6.336 6.404 0 3.4-2.782 6.256-6.336 6.256-3.477 0-6.336-2.857-6.336-6.256C41.34 2.86 44.2 0 47.676 0"/><path fill="#00bd59" d="M85.938 34.323v22.515h8.4v-36.11l-8.4 13.595zm41.723-.093v22.607h8.407v-36.2L127.66 34.23zM61.354 18.892v34.31l8.453-13.69v-20.62h-8.453zm22.708 0l-22.707 36.76v1.186h8.938l23.672-37.946h-9.9zm19.02 0v34.213l8.45-13.684V18.894h-8.45zm22.71 0l-22.71 36.665v1.28h8.937l23.607-37.945h-9.835z"/><g fill="#231F20"><path d="M171.38 37.842c0-7.18-4.636-10.81-9.658-10.81-5.027 0-9.663 3.628-9.663 10.81 0 7.106 4.635 10.813 9.662 10.813 5.023 0 9.66-3.633 9.66-10.813m10.278 0c0 11.66-8.578 20.157-19.937 20.157-11.362 0-19.94-8.498-19.94-20.158 0-11.74 8.578-20.158 19.94-20.158 11.358 0 19.937 8.42 19.937 20.158M198.733 37.842c0 6.87 4.482 10.733 9.737 10.733 5.254 0 7.882-3.474 8.73-6.41l9.044 3.013c-1.7 6.337-7.652 12.82-17.774 12.82-11.206 0-20.013-8.497-20.013-20.157 0-11.74 8.655-20.157 19.703-20.157 10.354 0 16.23 6.41 17.854 12.822l-9.2 3.087c-.927-3.162-3.323-6.41-8.423-6.41-5.25.002-9.657 3.79-9.657 10.66M260.24 37.842c0-7.18-4.638-10.81-9.66-10.81s-9.657 3.628-9.657 10.81c0 7.106 4.636 10.813 9.656 10.813 5.023 0 9.66-3.633 9.66-10.813m10.283 0c0 11.66-8.58 20.157-19.944 20.157-11.355 0-19.933-8.498-19.933-20.158 0-11.74 8.577-20.158 19.932-20.158 11.364 0 19.943 8.42 19.943 20.158M288.908 56.842h-10.28v-38h9.973v4.71c2.314-3.94 6.873-5.715 10.97-5.715 9.43 0 13.757 6.72 13.757 15.065v23.94h-10.28V34.68c0-4.25-2.082-7.57-7.03-7.57-4.48 0-7.107 3.478-7.107 7.876v21.856zM329.322 44.33c.227 3.01 2.475 5.792 6.95 5.792 3.405 0 5.024-1.775 5.024-3.782 0-1.703-1.157-3.093-4.093-3.71l-5.022-1.16c-7.344-1.62-10.66-6.02-10.66-11.35 0-6.795 6.025-12.438 14.22-12.438 10.814 0 14.445 6.875 14.904 10.974l-8.576 1.932c-.305-2.242-1.93-5.1-6.254-5.1-2.71 0-4.873 1.623-4.873 3.784 0 1.855 1.393 3.013 3.482 3.398l5.407 1.16c7.494 1.542 11.284 6.1 11.284 11.66 0 6.175-4.796 12.51-14.76 12.51-11.437 0-15.378-7.417-15.844-11.74l8.812-1.93zM383.722 52.75c-2.09 3.548-6.49 5.094-10.512 5.094-9.19 0-14.45-6.72-14.45-14.983V18.843h10.28V40.78c0 4.242 2.16 7.64 6.95 7.64 4.563 0 7.19-3.086 7.19-7.49V18.84h10.276v31.126c0 2.93.234 5.56.383 6.87h-9.81c-.16-.77-.308-2.544-.308-4.085"/></g><path fill="#231F20" d="M404.426.927H414.7v55.917h-10.274zM438.35 18.842H446v9.112h-7.65v15.91c0 3.324 1.546 4.406 4.48 4.406 1.237 0 2.625-.158 3.17-.31v8.496c-.93.387-2.783.927-5.794.927-7.42 0-12.055-4.403-12.055-11.74v-17.69h-6.884v-9.11h1.935c4.018 0 5.874-2.624 5.874-6.022V7.49h9.275v11.352z"/></svg>
