<svg xmlns="http://www.w3.org/2000/svg" height="480" width="320" viewBox="-160 0 320 480"><style>.f{fill:#fff}.s{fill:none;stroke:#fff;stroke-width:5;stroke-linecap:round;stroke-miterlimit:10}</style><path class="f" d="M62.4 80.4l3.8-3.5H60v-2h8.8v2L65 80.2c2 0 4 1.3 4 4 0 2-1.6 4-4.6 4-3 0-4.7-2-4.8-4l2-.4c0 1.6 1.2 2.7 2.8 2.7 1.8 0 2.7-1 2.7-2.4 0-1.7-1.3-2.4-2.5-2.4h-1l-1-1.6zM79.8 77c-.5-.2-1.3-.5-2.3-.5-2.7 0-4.4 2-4.6 4.6.4-.8 1.6-1.6 3.3-1.6 2.6 0 4.4 1.6 4.4 4.4 0 2.8-2.3 4.4-4.8 4.4-2.6 0-5.2-1.7-5.2-6 0-4.8 3-7.6 6.7-7.6 1.2 0 2.2.3 2.8.7l-.5 1.8zM76 86.8c1.5 0 2.8-1 2.8-2.7 0-1.7-1.3-2.7-2.8-2.7-1.5 0-2.8 1-2.8 2.7 0 1.7 1.4 2.7 2.8 2.7zM83.6 77c.8-1.4 2-2.2 4-2.2 1.8 0 3 .8 4 2 1 1.4 1.2 3 1.2 4.8 0 1.8-.3 3.4-1.2 4.7-.8 1.3-2 2-4 2-1.8 0-3-.7-4-2s-1.2-3-1.2-4.7c0-1.8.4-3.4 1.2-4.7zm2 8.8c.5.5 1 .8 2 .8s1.7-.3 2.2-.8c.8-.8 1-2.2 1-4.2s-.3-3.4-1-4.2c-.5-.5-1-.8-2-.8s-1.7.3-2.2.8c-.8.8-1 2.2-1 4.2s.2 3.4 1 4.2zM97.5 75c1.7 0 3.2 1.3 3.2 3 0 1.8-1.5 3.2-3.2 3.2-1.7 0-3.2-1.4-3.2-3.2 0-1.7 1.4-3 3.2-3zm0 4.6c1 0 1.5-.7 1.5-1.6 0-1-.7-1.6-1.5-1.6-1 0-1.5.7-1.5 1.6 0 1 .6 1.6 1.5 1.6z"/><path class="s" d="M80 141.5c34 0 61.5-27.6 61.5-61.5 0-34-27.6-61.5-61.5-61.5C46 18.5 18.5 46 18.5 80c0 34 27.6 61.5 61.5 61.5zM35 80H18.5M80 35V18.5M141.5 80H125M80 141.5V125"/><path class="s" d="M80 301.5c34 0 61.5-27.6 61.5-61.5 0-34-27.6-61.5-61.5-61.5-34 0-61.5 27.6-61.5 61.5 0 34 27.6 61.5 61.5 61.5zM80 217v46M103 240H57"/><path class="s" d="M59 342.2c-24.3 9-40.5 32-40.5 57.8 0 34 27.6 61.5 61.5 61.5 34 0 61.5-27.6 61.5-61.5 0-25.7-16.2-49-40.4-57.8M80 326.5v46"/></svg>
