<?xml version="1.0" encoding="UTF-8" standalone="no"?>
<svg xmlns="http://www.w3.org/2000/svg" height="480" width="160" viewBox="0 0 160 480" version="1.1">
	<style>.f{fill:#FFFFFF}.s{fill:none;stroke:#FFFFFF;stroke-width:5;stroke-linecap:round;stroke-miterlimit:10}</style>
	<g transform="translate(16,16)">
		<!-- FinnoScore -->
		<path class="f" d="m 46.4,64.4 3.8,-3.5 -6.2,0 0,-1.8 8.8,0 0,1.8 -3.7,3.4 c 1.9,0 4,1.3 4,3.9 0,2.2 -1.7,4.2 -4.7,4.2 -3,0 -4.7,-2 -4.8,-4.1 l 1.9,-0.4 c 0.1,1.7 1.3,2.8 2.9,2.8 1.8,0 2.7,-1.1 2.7,-2.4 0,-1.7 -1.4,-2.4 -2.6,-2.4 -0.4,0 -0.8,0.1 -1.1,0.2 l -1,-1.7 z"/>
		<path class="f" d="m 63.8,61.1 c -0.5,-0.3 -1.3,-0.6 -2.3,-0.6 -2.7,0 -4.4,2 -4.6,4.6 0.5,-0.9 1.7,-1.7 3.4,-1.7 2.6,0 4.4,1.6 4.4,4.4 0,2.8 -2.3,4.4 -4.8,4.4 -2.5,0 -5.1,-1.7 -5.1,-6 0,-4.8 2.9,-7.6 6.7,-7.6 1.2,0 2.2,0.3 2.8,0.7 l -0.5,1.8 z M 60,70.7 c 1.5,0 2.8,-1 2.8,-2.7 0,-1.7 -1.3,-2.7 -2.8,-2.7 -1.5,0 -2.8,1 -2.8,2.7 0,1.7 1.4,2.7 2.8,2.7 z"/>
		<path class="f" d="m 67.6,60.9 c 0.8,-1.3 2.1,-2.1 4,-2.1 1.8,0 3.1,0.8 4,2.1 0.9,1.3 1.2,2.9 1.2,4.7 0,1.8 -0.3,3.4 -1.2,4.7 -0.8,1.3 -2.1,2.1 -4,2.1 -1.8,0 -3.1,-0.8 -4,-2.1 -0.9,-1.3 -1.2,-2.9 -1.2,-4.7 0,-1.8 0.4,-3.4 1.2,-4.7 z m 2,8.9 c 0.5,0.5 1.1,0.8 2.1,0.8 0.9,0 1.6,-0.3 2.1,-0.8 0.8,-0.8 1.1,-2.2 1.1,-4.2 0,-2 -0.4,-3.4 -1.1,-4.2 -0.5,-0.5 -1.1,-0.8 -2.1,-0.8 -0.9,0 -1.6,0.3 -2.1,0.8 -0.8,0.8 -1.1,2.2 -1.1,4.2 0,2 0.3,3.4 1.1,4.2 z"/>
		<path class="f" d="m 81.5,58.9 c 1.7,0 3.2,1.4 3.2,3.1 0,1.8 -1.5,3.2 -3.2,3.2 -1.7,0 -3.2,-1.4 -3.2,-3.2 0,-1.7 1.4,-3.1 3.2,-3.1 z m 0,4.7 c 0.9,0 1.5,-0.7 1.5,-1.6 0,-0.9 -0.7,-1.6 -1.5,-1.6 -0.9,0 -1.5,0.7 -1.5,1.6 -0.1,1 0.6,1.6 1.5,1.6 z"/>
		<path class="s" d="M 64,125.5 C 97.9,125.5 125.5,97.9 125.5,64 125.5,30.1 97.9,2.5 64,2.5 30.1,2.5 2.5,30.1 2.5,64 c 0,33.9 27.6,61.5 61.5,61.5 z"/>
		<line class="s" y2="64" x2="2.5" y1="64" x1="19"/>
		<line class="s" y2="2.5" x2="64" y1="19" x1="64"/>
		<line class="s" y2="64" x2="109" y1="64" x1="125.5"/>
		<line class="s" y2="109" x2="64" y1="125.5" x1="64"/>
	</g>
	<g transform="translate(16,176)">
		<!-- FinnoPretation -->
		<path class="s" d="M 64,125.5 C 97.9,125.5 125.5,97.9 125.5,64 125.5,30.1 97.9,2.5 64,2.5 30.1,2.5 2.5,30.1 2.5,64 c 0,33.9 27.6,61.5 61.5,61.5 z"/>
		<line class="s" y2="87" x2="64" y1="41" x1="64"/>
		<line class="s" y2="64" x2="41" y1="64" x1="87"/>
	</g>
	<g transform="translate(16,324)">
		<!-- FinnoProject -->
		<path class="s" d="M 42.9,18.2 C 18.7,27.1 2.5,50.3 2.5,76 c 0,33.9 27.6,61.5 61.5,61.5 33.9,0 61.5,-27.6 61.5,-61.5 0,-25.7 -16.2,-48.9 -40.4,-57.8"/>
		<line class="s" y2="48.5" x2="64" y1="2.5" x1="64"/>
	</g>
</svg>
