<?xml version="1.0" encoding="UTF-8"?>
<svg width="314px" height="25px" viewBox="0 0 314 25" version="1.1" xmlns="http://www.w3.org/2000/svg" xmlns:xlink="http://www.w3.org/1999/xlink">
    <!-- Generator: Sketch 48.2 (47327) - http://www.bohemiancoding.com/sketch -->
    <title>logo</title>
    <desc>Created with Sketch.</desc>
    <defs>
        <path d="M0,24.4310526 L0,0.896184211 L4.53331311,0.896184211 L4.53331311,24.4310526 L0,24.4310526 Z M49.5394282,20.9125 C51.6441793,20.9125 53.5870185,19.3523684 53.5870185,16.2652632 C53.5870185,13.1781579 51.6441793,11.6180263 49.5394282,11.6180263 C47.4346771,11.6180263 45.4918379,13.1781579 45.4918379,16.2652632 C45.4918379,19.3192105 47.4346771,20.9125 49.5394282,20.9125 Z M49.5394282,7.60157895 C54.2993946,7.60157895 57.8936653,11.2197368 57.8936653,16.2652632 C57.8936653,21.2776316 54.2993946,24.9290789 49.5394282,24.9290789 C44.7794488,24.9290789 41.1851911,21.2776316 41.1851911,16.2652632 C41.1851911,11.2197368 44.7794488,7.60157895 49.5394282,7.60157895 Z M75.1431967,8.09947368 L68.958439,24.4310526 L64.6518052,24.4310526 L58.1432627,8.09947368 L62.870865,8.09947368 L66.8213107,19.0535526 L70.6098575,8.09947368 L75.1431967,8.09947368 Z M75.7615552,19.9830263 C75.7615552,17.0619737 77.8662672,15.4353947 80.5215867,15.0371053 L84.439551,14.4396053 C85.3462423,14.3068421 85.6377021,13.8421053 85.6377021,13.2777632 C85.6377021,12.1159211 84.7634531,11.1532895 82.9500705,11.1532895 C81.0720639,11.1532895 80.0358639,12.3815789 79.9063552,13.8089474 L76.085327,12.9790789 C76.3443444,10.4230263 78.6434498,7.60157895 82.9177585,7.60157895 C87.9691195,7.60157895 89.8471261,10.5226316 89.8471261,13.8089474 L89.8471261,21.8419737 C89.8471261,22.705 89.9443228,23.8668421 90.0415195,24.4310526 L86.0909826,24.4310526 C85.9939162,23.9996053 85.9291618,23.1032895 85.9291618,22.4726316 C85.1195369,23.7672368 83.5977444,24.8957895 81.2338846,24.8957895 C77.8339552,24.8957895 75.7615552,22.5390789 75.7615552,19.9830263 Z M82.1405759,21.6096053 C83.9538282,21.6096053 85.6377021,20.7132895 85.6377021,17.8253947 L85.6377021,17.0951316 L82.0433793,17.6594737 C80.9424249,17.8253947 80.0681759,18.4560526 80.0681759,19.7175 C80.0681759,20.6801316 80.7481618,21.6096053 82.1405759,21.6096053 Z M88.7786141,1.16184211 L84.3747967,6.14092105 L80.9101129,6.14092105 L83.8567618,1.16184211 L88.7786141,1.16184211 Z M100.787876,11.6844737 C98.5859676,11.6844737 96.740273,13.3109211 96.740273,16.2652632 C96.740273,19.2196053 98.6182797,20.8793421 100.820188,20.8793421 C103.022097,20.8793421 104.123051,19.3855263 104.479266,18.1242105 L108.267851,19.4186842 C107.555423,22.1406579 105.062055,24.9290789 100.820188,24.9290789 C96.1250415,24.9290789 92.4336523,21.2776316 92.4336523,16.2652632 C92.4336523,11.2197368 96.0602871,7.60157895 100.69068,7.60157895 C105.029743,7.60157895 107.490669,10.3567105 108.170655,13.1118421 L104.317315,14.4396053 C103.928788,13.0785526 102.925031,11.6844737 100.787876,11.6844737 Z M110.815942,24.4310526 L110.815942,8.09947368 L115.122563,8.09947368 L115.122563,24.4310526 L110.815942,24.4310526 Z M110.297907,2.75513158 C110.297907,1.22815789 111.495928,0 112.953096,0 C114.442577,0 115.608285,1.22815789 115.608285,2.75513158 C115.608285,4.21565789 114.442577,5.44394737 112.953096,5.44394737 C111.495928,5.44394737 110.297907,4.21565789 110.297907,2.75513158 Z M131.895895,1.16184211 L127.492078,6.14092105 L124.027394,6.14092105 L126.974043,1.16184211 L131.895895,1.16184211 Z M126.229173,20.9125 C128.334015,20.9125 130.276776,19.3523684 130.276776,16.2652632 C130.276776,13.1781579 128.334015,11.6180263 126.229173,11.6180263 C124.124461,11.6180263 122.181569,13.1781579 122.181569,16.2652632 C122.181569,19.3192105 124.124461,20.9125 126.229173,20.9125 Z M126.229173,7.60157895 C130.989204,7.60157895 134.583527,11.2197368 134.583527,16.2652632 C134.583527,21.2776316 130.989204,24.9290789 126.229173,24.9290789 C121.469271,24.9290789 117.874949,21.2776316 117.874949,16.2652632 C117.874949,11.2197368 121.469271,7.60157895 126.229173,7.60157895 Z M136.166556,19.8834211 L139.857945,19.0535526 C139.955142,20.3481579 140.894145,21.5431579 142.772152,21.5431579 C144.197008,21.5431579 144.876994,20.7797368 144.876994,19.9167105 C144.876994,19.1864474 144.391271,18.5889474 143.160808,18.3232895 L141.055966,17.8253947 C137.979808,17.1282895 136.587524,15.2361842 136.587524,12.9457895 C136.587524,10.0247368 139.113205,7.60157895 142.545577,7.60157895 C147.078903,7.60157895 148.600695,10.5557895 148.795089,12.3151316 L145.200766,13.145 C145.071257,12.1823684 144.391271,10.9542105 142.577889,10.9542105 C141.444622,10.9542105 140.537931,11.6511842 140.537931,12.5806579 C140.537931,13.3773684 141.120851,13.8752632 141.9951,14.0411842 L144.261763,14.5392105 C147.402675,15.2030263 148.989352,17.1615789 148.989352,19.5515789 C148.989352,22.2071053 146.981706,24.9290789 142.804594,24.9290789 C138.012251,24.9290789 136.360819,21.7423684 136.166556,19.8834211 Z M178.002431,5.24473684 L170.749161,5.24473684 L170.749161,24.4310526 L166.248277,24.4310526 L166.248277,5.24473684 L158.995007,5.24473684 L158.995007,0.896184211 L178.002431,0.896184211 L178.002431,5.24473684 Z M176.2796,19.9830263 C176.2796,17.0619737 178.384312,15.4353947 181.039501,15.0371053 L184.957596,14.4396053 C185.864287,14.3068421 186.155747,13.8421053 186.155747,13.2777632 C186.155747,12.1159211 185.281368,11.1532895 183.468115,11.1532895 C181.589978,11.1532895 180.553778,12.3815789 180.42427,13.8089474 L176.603372,12.9790789 C176.862389,10.4230263 179.161495,7.60157895 183.435673,7.60157895 C188.487164,7.60157895 190.365171,10.5226316 190.365171,13.8089474 L190.365171,21.8419737 C190.365171,22.705 190.462368,23.8668421 190.559434,24.4310526 L186.609027,24.4310526 C186.511831,23.9996053 186.447076,23.1032895 186.447076,22.4726316 C185.637582,23.7672368 184.115659,24.8957895 181.751929,24.8957895 C178.35187,24.8957895 176.2796,22.5390789 176.2796,19.9830263 Z M182.658621,21.6096053 C184.471873,21.6096053 186.155747,20.7132895 186.155747,17.8253947 L186.155747,17.0951316 L182.561424,17.6594737 C181.46047,17.8253947 180.586221,18.4560526 180.586221,19.7175 C180.586221,20.6801316 181.266207,21.6096053 182.658621,21.6096053 Z M198.330348,15.0371053 L198.330348,24.4310526 L194.023727,24.4310526 L194.023727,8.09947368 L198.200839,8.09947368 L198.200839,10.1243421 C199.172285,8.43144737 201.082734,7.66789474 202.79892,7.66789474 C206.749456,7.66789474 208.562709,10.5557895 208.562709,14.1407895 L208.562709,24.4310526 L204.256088,24.4310526 L204.256088,14.9043421 C204.256088,13.0785526 203.381839,11.6511842 201.309439,11.6511842 C199.431302,11.6511842 198.330348,13.145 198.330348,15.0371053 Z M211.415418,19.9830263 C211.415418,17.0619737 213.52013,15.4353947 216.17532,15.0371053 L220.093414,14.4396053 C221.000105,14.3068421 221.291565,13.8421053 221.291565,13.2777632 C221.291565,12.1159211 220.417186,11.1532895 218.603934,11.1532895 C216.725797,11.1532895 215.689597,12.3815789 215.560088,13.8089474 L211.73919,12.9790789 C211.998207,10.4230263 214.297313,7.60157895 218.571491,7.60157895 C223.622983,7.60157895 225.500989,10.5226316 225.500989,13.8089474 L225.500989,21.8419737 C225.500989,22.705 225.598186,23.8668421 225.695252,24.4310526 L221.744846,24.4310526 C221.647649,23.9996053 221.582895,23.1032895 221.582895,22.4726316 C220.7734,23.7672368 219.251477,24.8957895 216.887748,24.8957895 C213.487818,24.8957895 211.415418,22.5390789 211.415418,19.9830263 Z M217.794439,21.6096053 C219.607691,21.6096053 221.291565,20.7132895 221.291565,17.8253947 L221.291565,17.0951316 L217.697242,17.6594737 C216.596288,17.8253947 215.722039,18.4560526 215.722039,19.7175 C215.722039,20.6801316 216.402025,21.6096053 217.794439,21.6096053 Z M224.432477,1.16184211 L220.02866,6.14092105 L216.563976,6.14092105 L219.510625,1.16184211 L224.432477,1.16184211 Z M236.44213,11.6844737 C234.240222,11.6844737 232.394527,13.3109211 232.394527,16.2652632 C232.394527,19.2196053 234.272664,20.8793421 236.474442,20.8793421 C238.676351,20.8793421 239.777305,19.3855263 240.13352,18.1242105 L243.921584,19.4186842 C243.209286,22.1406579 240.716439,24.9290789 236.474442,24.9290789 C231.778905,24.9290789 228.087906,21.2776316 228.087906,16.2652632 C228.087906,11.2197368 231.714541,7.60157895 236.344934,7.60157895 C240.683997,7.60157895 243.144923,10.3567105 243.824909,13.1118421 L239.971568,14.4396053 C239.583042,13.0785526 238.578763,11.6844737 236.44213,11.6844737 Z M245.573016,19.8834211 L249.264405,19.0535526 C249.361602,20.3481579 250.300605,21.5431579 252.178742,21.5431579 C253.603468,21.5431579 254.283454,20.7797368 254.283454,19.9167105 C254.283454,19.1864474 253.797731,18.5889474 252.567268,18.3232895 L250.462556,17.8253947 C247.386398,17.1282895 245.993984,15.2361842 245.993984,12.9457895 C245.993984,10.0247368 248.519665,7.60157895 251.952037,7.60157895 C256.485363,7.60157895 258.007285,10.5557895 258.201549,12.3151316 L254.607226,13.145 C254.477717,12.1823684 253.797731,10.9542105 251.984479,10.9542105 C250.851082,10.9542105 249.944391,11.6511842 249.944391,12.5806579 C249.944391,13.3773684 250.52731,13.8752632 251.401559,14.0411842 L253.668222,14.5392105 C256.809134,15.2030263 258.395812,17.1615789 258.395812,19.5515789 C258.395812,22.2071053 256.388166,24.9290789 252.211054,24.9290789 C247.41871,24.9290789 245.767279,21.7423684 245.573016,19.8834211 Z M260.510035,19.9830263 C260.510035,17.0619737 262.614747,15.4353947 265.269936,15.0371053 L269.188031,14.4396053 C270.094722,14.3068421 270.386182,13.8421053 270.386182,13.2777632 C270.386182,12.1159211 269.511933,11.1532895 267.69855,11.1532895 C265.820413,11.1532895 264.784344,12.3815789 264.654705,13.8089474 L260.833807,12.9790789 C261.092824,10.4230263 263.391929,7.60157895 267.666238,7.60157895 C272.717599,7.60157895 274.595606,10.5226316 274.595606,13.8089474 L274.595606,21.8419737 C274.595606,22.705 274.692802,23.8668421 274.789999,24.4310526 L270.839462,24.4310526 C270.742396,23.9996053 270.677641,23.1032895 270.677641,22.4726316 C269.868017,23.7672368 268.346224,24.8957895 265.982364,24.8957895 C262.582435,24.8957895 260.510035,22.5390789 260.510035,19.9830263 Z M266.889056,21.6096053 C268.702308,21.6096053 270.386182,20.7132895 270.386182,17.8253947 L270.386182,17.0951316 L266.791859,17.6594737 C265.690905,17.8253947 264.816656,18.4560526 264.816656,19.7175 C264.816656,20.6801316 265.496641,21.6096053 266.889056,21.6096053 Z M293.567199,0.398289474 L293.567199,21.4768421 C293.567199,22.5722368 293.631954,23.7672368 293.696708,24.4310526 L289.58435,24.4310526 C289.519596,24.0992105 289.422399,23.3025 289.422399,22.5390789 C288.710101,23.8335526 287.090982,24.8294737 284.953958,24.8294737 C280.420632,24.8294737 277.182523,21.1780263 277.182523,16.2321053 C277.182523,11.4521053 280.323435,7.70105263 284.824449,7.70105263 C287.576705,7.70105263 288.871922,8.86289474 289.325333,9.72592105 L289.325333,0.398289474 L293.567199,0.398289474 Z M281.521586,16.2321053 C281.521586,19.1531579 283.205329,20.8793421 285.471993,20.8793421 C287.673901,20.8793421 289.390087,19.1531579 289.390087,16.1989474 C289.390087,13.2777632 287.673901,11.6511842 285.471993,11.6511842 C283.270084,11.6511842 281.521586,13.3109211 281.521586,16.2321053 Z M310.420921,1.16184211 L306.017104,6.14092105 L302.55242,6.14092105 L305.499069,1.16184211 L310.420921,1.16184211 Z M304.754329,20.9125 C306.859041,20.9125 308.801932,19.3523684 308.801932,16.2652632 C308.801932,13.1781579 306.859041,11.6180263 304.754329,11.6180263 C302.649486,11.6180263 300.706725,13.1781579 300.706725,16.2652632 C300.706725,19.3192105 302.649486,20.9125 304.754329,20.9125 Z M304.754329,7.60157895 C309.51423,7.60157895 313.108553,11.2197368 313.108553,16.2652632 C313.108553,21.2776316 309.51423,24.9290789 304.754329,24.9290789 C299.994297,24.9290789 296.400105,21.2776316 296.400105,16.2652632 C296.400105,11.2197368 299.994297,7.60157895 304.754329,7.60157895 Z" id="path-1"></path>
        <path d="M32.206499,1.31169545 L26.855465,10.0620251 L22.374976,17.278752 L18.652842,17.278752 L18.652842,16.7389953 L22.174321,10.9803454 L22.174321,11.0187755 L28.109432,1.31169545 L32.206499,1.31169545 Z M18.652842,15.7081868 L18.652842,1.31169545 L22.174321,1.31169545 L22.174321,9.94913658 L18.652842,15.7081868 Z M11.515608,17.278752 L11.515608,7.80452119 L15.01474,2.08296703 L15.01474,17.278752 L11.515608,17.278752 Z M11.106706,7.44210361 L4.999982,17.278752 L1.277861,17.278752 L1.277861,16.7787598 L5.662267,9.6088697 L5.66137,9.60846939 L10.734893,1.31169545 L14.856088,1.31169545 L11.106706,7.44210361 Z M1.277861,15.7479513 L1.277861,1.31169545 L4.799327,1.31169545 L4.799327,9.98930141 L1.277861,15.7479513 Z M28.890589,7.76489011 L32.389279,2.04320251 L32.389279,17.278752 L28.890589,17.278752 L28.890589,7.76489011 Z" id="path-3"></path>
    </defs>
    <g id="Artboard" stroke="none" stroke-width="1" fill="none" fill-rule="evenodd" transform="translate(-111.000000, -198.000000)">
        <g id="logo-ulf" transform="translate(111.000000, 198.000000)">
            <g>
                <g id="Group-10">
                    <mask id="mask-2" fill="white">
                        <use xlink:href="#path-1"></use>
                    </mask>
                    <g id="Clip-9"></g>
                    <polygon id="Fill-8" fill="#1D1D1B" mask="url(#mask-2)" points="-6.51452282 31.5080263 319.623076 31.5080263 319.623076 -6.57894737 -6.51452282 -6.57894737"></polygon>
                </g>
                <g id="Group-13" transform="translate(6.500000, 6.632653)">
                    <mask id="mask-4" fill="white">
                        <use xlink:href="#path-3"></use>
                    </mask>
                    <g id="Clip-12"></g>
                    <polygon id="Fill-11" fill="#0965BC" mask="url(#mask-4)" points="-5.222139 23.9506515 38.889279 23.9506515 38.889279 -5.36020408 -5.222139 -5.36020408"></polygon>
                </g>
            </g>
        </g>
    </g>
</svg>