<?xml version="1.0" encoding="UTF-8" standalone="no"?>
<svg width="687px" height="55px" viewBox="0 0 687 55" version="1.1" xmlns="http://www.w3.org/2000/svg" xmlns:xlink="http://www.w3.org/1999/xlink">
    <!-- Generator: Sketch 46 (44423) - http://www.bohemiancoding.com/sketch -->
    <title>logotype1</title>
    <desc>Created with Sketch.</desc>
    <defs></defs>
    <g id="Page-1" stroke="none" stroke-width="1" fill="none" fill-rule="evenodd">
        <g id="logotype1">
            <g id="Group">
                <polygon id="I" fill="#231F20" points="10.08 54.048 10.08 3 0 3 0 54.048"></polygon>
                <path d="M88.209,18 L79.041,18 L65.76,39.509 L65.76,39.424 L57.88,52.184 L57.88,53.38 L66.209,53.38 L76.235,37.389 L88.209,18 Z M57.88,49.9 L65.76,37.139 L65.76,18 L57.88,18 L57.88,49.9 Z M41.909,53.38 L49.739,53.38 L49.739,19.709 L41.909,32.387 L41.909,53.38 Z M40.994,31.584 L49.384,18 L40.162,18 L28.809,36.384 L28.811,36.385 L19,52.272 L19,53.38 L27.329,53.38 L40.994,31.584 Z M19,49.988 L26.88,37.228 L26.88,18 L19,18 L19,49.988 Z M80.789,32.299 L80.789,53.38 L88.618,53.38 L88.618,19.621 L80.789,32.299 Z" id="Fill-1" fill="#00BE5A"></path>
                <path d="M113.5853,46.0711154 C118.2653,46.0711154 122.5853,42.6871154 122.5853,35.9911154 C122.5853,29.2951154 118.2653,25.9111154 113.5853,25.9111154 C108.9053,25.9111154 104.5853,29.2951154 104.5853,35.9911154 C104.5853,42.6151154 108.9053,46.0711154 113.5853,46.0711154 Z M113.5853,17.1991154 C124.1693,17.1991154 132.1613,25.0471154 132.1613,35.9911154 C132.1613,46.8631154 124.1693,54.7831154 113.5853,54.7831154 C103.0013,54.7831154 95.0093,46.8631154 95.0093,35.9911154 C95.0093,25.0471154 103.0013,17.1991154 113.5853,17.1991154 Z M170.9693,18.2791154 L160.8893,18.2791154 L152.4653,42.0391154 L143.6813,18.2791154 L133.1693,18.2791154 L147.6413,53.7031154 L157.2173,53.7031154 L170.9693,18.2791154 Z M174.3533,44.0551154 C174.3533,37.7191154 179.0333,34.1911154 184.9373,33.3271154 L193.6493,32.0311154 C195.6653,31.7431154 196.3133,30.7351154 196.3133,29.5111154 C196.3133,26.9911154 194.3693,24.9031154 190.3373,24.9031154 C186.1613,24.9031154 183.8573,27.5671154 183.5693,30.6631154 L175.0733,28.8631154 C175.6493,23.3191154 180.7613,17.1991154 190.2653,17.1991154 C201.4973,17.1991154 205.6733,23.5351154 205.6733,30.6631154 L205.6733,48.0871154 C205.6733,49.9591154 205.8893,52.4791154 206.1053,53.7031154 L197.3213,53.7031154 C197.1053,52.7671154 196.9613,50.8231154 196.9613,49.4551154 C195.1613,52.2631154 191.7773,54.7111154 186.5213,54.7111154 C178.9613,54.7111154 174.3533,49.5991154 174.3533,44.0551154 Z M188.5373,47.5831154 C192.5693,47.5831154 196.3133,45.6391154 196.3133,39.3751154 L196.3133,37.7911154 L188.3213,39.0151154 C185.8733,39.3751154 183.9293,40.7431154 183.9293,43.4791154 C183.9293,45.5671154 185.4413,47.5831154 188.5373,47.5831154 Z M230.9453,26.0551154 C235.6973,26.0551154 237.9293,29.0791154 238.7933,32.0311154 L247.3613,29.1511154 C245.8493,23.1751154 240.3773,17.1991154 230.7293,17.1991154 C220.4333,17.1991154 212.3693,25.0471154 212.3693,35.9911154 C212.3693,46.8631154 220.5773,54.7831154 231.0173,54.7831154 C240.4493,54.7831154 245.9933,48.7351154 247.5773,42.8311154 L239.1533,40.0231154 C238.3613,42.7591154 235.9133,45.9991154 231.0173,45.9991154 C226.1213,45.9991154 221.9453,42.3991154 221.9453,35.9911154 C221.9453,29.5831154 226.0493,26.0551154 230.9453,26.0551154 Z M264.2093,53.7031154 L264.2093,18.2791154 L254.6333,18.2791154 L254.6333,53.7031154 L264.2093,53.7031154 Z M253.4813,6.68711542 C253.4813,9.85511542 256.1453,12.5191154 259.3853,12.5191154 C262.6973,12.5191154 265.2893,9.85511542 265.2893,6.68711542 C265.2893,3.37511542 262.6973,0.711115421 259.3853,0.711115421 C256.1453,0.711115421 253.4813,3.37511542 253.4813,6.68711542 Z M290.3453,46.0711154 C295.0253,46.0711154 299.3453,42.6871154 299.3453,35.9911154 C299.3453,29.2951154 295.0253,25.9111154 290.3453,25.9111154 C285.6653,25.9111154 281.3453,29.2951154 281.3453,35.9911154 C281.3453,42.6151154 285.6653,46.0711154 290.3453,46.0711154 Z M290.3453,17.1991154 C300.9293,17.1991154 308.9213,25.0471154 308.9213,35.9911154 C308.9213,46.8631154 300.9293,54.7831154 290.3453,54.7831154 C279.7613,54.7831154 271.7693,46.8631154 271.7693,35.9911154 C271.7693,25.0471154 279.7613,17.1991154 290.3453,17.1991154 Z M313.4573,43.8391154 C313.8893,47.8711154 317.5613,54.7831154 328.2173,54.7831154 C337.5053,54.7831154 341.9693,48.8791154 341.9693,43.1191154 C341.9693,37.9351154 338.4413,33.6871154 331.4573,32.2471154 L326.4173,31.1671154 C324.4733,30.8071154 323.1773,29.7271154 323.1773,27.9991154 C323.1773,25.9831154 325.1933,24.4711154 327.7133,24.4711154 C331.7453,24.4711154 333.2573,27.1351154 333.5453,29.2231154 L341.5373,27.4231154 C341.1053,23.6071154 337.7213,17.1991154 327.6413,17.1991154 C320.0093,17.1991154 314.3933,22.4551154 314.3933,28.7911154 C314.3933,33.7591154 317.4893,37.8631154 324.3293,39.3751154 L329.0093,40.4551154 C331.7453,41.0311154 332.8253,42.3271154 332.8253,43.9111154 C332.8253,45.7831154 331.3133,47.4391154 328.1453,47.4391154 C323.9693,47.4391154 321.8813,44.8471154 321.6653,42.0391154 L313.4573,43.8391154 Z M361.4813,7.69511542 L352.8413,7.69511542 L352.8413,12.6631154 C352.8413,15.8311154 351.1133,18.2791154 347.3693,18.2791154 L345.5693,18.2791154 L345.5693,26.7751154 L351.9773,26.7751154 L351.9773,43.2631154 C351.9773,50.1031154 356.2973,54.2071154 363.2093,54.2071154 C366.0173,54.2071154 367.7453,53.7031154 368.6093,53.3431154 L368.6093,45.4231154 C368.1053,45.5671154 366.8093,45.7111154 365.6573,45.7111154 C362.9213,45.7111154 361.4813,44.7031154 361.4813,41.6071154 L361.4813,26.7751154 L368.6093,26.7751154 L368.6093,18.2791154 L361.4813,18.2791154 L361.4813,7.69511542 Z M375.2261,44.0551154 C375.2261,37.7191154 379.9061,34.1911154 385.8101,33.3271154 L394.5221,32.0311154 C396.5381,31.7431154 397.1861,30.7351154 397.1861,29.5111154 C397.1861,26.9911154 395.2421,24.9031154 391.2101,24.9031154 C387.0341,24.9031154 384.7301,27.5671154 384.4421,30.6631154 L375.9461,28.8631154 C376.5221,23.3191154 381.6341,17.1991154 391.1381,17.1991154 C402.3701,17.1991154 406.5461,23.5351154 406.5461,30.6631154 L406.5461,48.0871154 C406.5461,49.9591154 406.7621,52.4791154 406.9781,53.7031154 L398.1941,53.7031154 C397.9781,52.7671154 397.8341,50.8231154 397.8341,49.4551154 C396.0341,52.2631154 392.6501,54.7111154 387.3941,54.7111154 C379.8341,54.7111154 375.2261,49.5991154 375.2261,44.0551154 Z M389.4101,47.5831154 C393.4421,47.5831154 397.1861,45.6391154 397.1861,39.3751154 L397.1861,37.7911154 L389.1941,39.0151154 C386.7461,39.3751154 384.8021,40.7431154 384.8021,43.4791154 C384.8021,45.5671154 386.3141,47.5831154 389.4101,47.5831154 Z M425.7701,33.3271154 C425.7701,29.2231154 428.2181,25.9831154 432.3941,25.9831154 C437.0021,25.9831154 438.9461,29.0791154 438.9461,33.0391154 L438.9461,53.7031154 L448.5221,53.7031154 L448.5221,31.3831154 C448.5221,23.6071154 444.4901,17.3431154 435.7061,17.3431154 C431.8901,17.3431154 427.6421,18.9991154 425.4821,22.6711154 L425.4821,18.2791154 L416.1941,18.2791154 L416.1941,53.7031154 L425.7701,53.7031154 L425.7701,33.3271154 Z M456.0821,44.0551154 C456.0821,37.7191154 460.7621,34.1911154 466.6661,33.3271154 L475.3781,32.0311154 C477.3941,31.7431154 478.0421,30.7351154 478.0421,29.5111154 C478.0421,26.9911154 476.0981,24.9031154 472.0661,24.9031154 C467.8901,24.9031154 465.5861,27.5671154 465.2981,30.6631154 L456.8021,28.8631154 C457.3781,23.3191154 462.4901,17.1991154 471.9941,17.1991154 C483.2261,17.1991154 487.4021,23.5351154 487.4021,30.6631154 L487.4021,48.0871154 C487.4021,49.9591154 487.6181,52.4791154 487.8341,53.7031154 L479.0501,53.7031154 C478.8341,52.7671154 478.6901,50.8231154 478.6901,49.4551154 C476.8901,52.2631154 473.5061,54.7111154 468.2501,54.7111154 C460.6901,54.7111154 456.0821,49.5991154 456.0821,44.0551154 Z M470.2661,47.5831154 C474.2981,47.5831154 478.0421,45.6391154 478.0421,39.3751154 L478.0421,37.7911154 L470.0501,39.0151154 C467.6021,39.3751154 465.6581,40.7431154 465.6581,43.4791154 C465.6581,45.5671154 467.1701,47.5831154 470.2661,47.5831154 Z M512.6741,26.0551154 C517.4261,26.0551154 519.6581,29.0791154 520.5221,32.0311154 L529.0901,29.1511154 C527.5781,23.1751154 522.1061,17.1991154 512.4581,17.1991154 C502.1621,17.1991154 494.0981,25.0471154 494.0981,35.9911154 C494.0981,46.8631154 502.3061,54.7831154 512.7461,54.7831154 C522.1781,54.7831154 527.7221,48.7351154 529.3061,42.8311154 L520.8821,40.0231154 C520.0901,42.7591154 517.6421,45.9991154 512.7461,45.9991154 C507.8501,45.9991154 503.6741,42.3991154 503.6741,35.9911154 C503.6741,29.5831154 507.7781,26.0551154 512.6741,26.0551154 Z M533.3381,43.8391154 C533.7701,47.8711154 537.4421,54.7831154 548.0981,54.7831154 C557.3861,54.7831154 561.8501,48.8791154 561.8501,43.1191154 C561.8501,37.9351154 558.3221,33.6871154 551.3381,32.2471154 L546.2981,31.1671154 C544.3541,30.8071154 543.0581,29.7271154 543.0581,27.9991154 C543.0581,25.9831154 545.0741,24.4711154 547.5941,24.4711154 C551.6261,24.4711154 553.1381,27.1351154 553.4261,29.2231154 L561.4181,27.4231154 C560.9861,23.6071154 557.6021,17.1991154 547.5221,17.1991154 C539.8901,17.1991154 534.2741,22.4551154 534.2741,28.7911154 C534.2741,33.7591154 537.3701,37.8631154 544.2101,39.3751154 L548.8901,40.4551154 C551.6261,41.0311154 552.7061,42.3271154 552.7061,43.9111154 C552.7061,45.7831154 551.1941,47.4391154 548.0261,47.4391154 C543.8501,47.4391154 541.7621,44.8471154 541.5461,42.0391154 L533.3381,43.8391154 Z M566.8181,44.0551154 C566.8181,37.7191154 571.4981,34.1911154 577.4021,33.3271154 L586.1141,32.0311154 C588.1301,31.7431154 588.7781,30.7351154 588.7781,29.5111154 C588.7781,26.9911154 586.8341,24.9031154 582.8021,24.9031154 C578.6261,24.9031154 576.3221,27.5671154 576.0341,30.6631154 L567.5381,28.8631154 C568.1141,23.3191154 573.2261,17.1991154 582.7301,17.1991154 C593.9621,17.1991154 598.1381,23.5351154 598.1381,30.6631154 L598.1381,48.0871154 C598.1381,49.9591154 598.3541,52.4791154 598.5701,53.7031154 L589.7861,53.7031154 C589.5701,52.7671154 589.4261,50.8231154 589.4261,49.4551154 C587.6261,52.2631154 584.2421,54.7111154 578.9861,54.7111154 C571.4261,54.7111154 566.8181,49.5991154 566.8181,44.0551154 Z M581.0021,47.5831154 C585.0341,47.5831154 588.7781,45.6391154 588.7781,39.3751154 L588.7781,37.7911154 L580.7861,39.0151154 C578.3381,39.3751154 576.3941,40.7431154 576.3941,43.4791154 C576.3941,45.5671154 577.9061,47.5831154 581.0021,47.5831154 Z M641.2661,1.57511542 L641.2661,47.2951154 C641.2661,49.6711154 641.4101,52.2631154 641.5541,53.7031154 L632.4101,53.7031154 C632.2661,52.9831154 632.0501,51.2551154 632.0501,49.5991154 C630.4661,52.4071154 626.8661,54.5671154 622.1141,54.5671154 C612.0341,54.5671154 604.8341,46.6471154 604.8341,35.9191154 C604.8341,25.5511154 611.8181,17.4151154 621.8261,17.4151154 C627.9461,17.4151154 630.8261,19.9351154 631.8341,21.8071154 L631.8341,1.57511542 L641.2661,1.57511542 Z M614.4821,35.9191154 C614.4821,42.2551154 618.2261,45.9991154 623.2661,45.9991154 C628.1621,45.9991154 631.9781,42.2551154 631.9781,35.8471154 C631.9781,29.5111154 628.1621,25.9831154 623.2661,25.9831154 C618.3701,25.9831154 614.4821,29.5831154 614.4821,35.9191154 Z M667.5461,46.0711154 C672.2261,46.0711154 676.5461,42.6871154 676.5461,35.9911154 C676.5461,29.2951154 672.2261,25.9111154 667.5461,25.9111154 C662.8661,25.9111154 658.5461,29.2951154 658.5461,35.9911154 C658.5461,42.6151154 662.8661,46.0711154 667.5461,46.0711154 Z M667.5461,17.1991154 C678.1301,17.1991154 686.1221,25.0471154 686.1221,35.9911154 C686.1221,46.8631154 678.1301,54.7831154 667.5461,54.7831154 C656.9621,54.7831154 648.9701,46.8631154 648.9701,35.9911154 C648.9701,25.0471154 656.9621,17.1991154 667.5461,17.1991154 Z" id="ovaciostanacsado" fill="#231F20"></path>
            </g>
        </g>
    </g>
</svg>