<?xml version="1.0" encoding="UTF-8"?>
<svg width="727px" height="56px" viewBox="0 0 727 56" version="1.1" xmlns="http://www.w3.org/2000/svg" xmlns:xlink="http://www.w3.org/1999/xlink">
    <!-- Generator: Sketch 46.2 (44496) - http://www.bohemiancoding.com/sketch -->
    <title>logo</title>
    <desc>Created with Sketch.</desc>
    <defs></defs>
    <g id="Page-1" stroke="none" stroke-width="1" fill="none" fill-rule="evenodd">
        <g id="logo">
            <path d="M10.728,53.992 L10.728,18.568 L1.152,18.568 L1.152,53.992 L10.728,53.992 Z M0,6.976 C0,10.144 2.664,12.808 5.904,12.808 C9.216,12.808 11.808,10.144 11.808,6.976 C11.808,3.664 9.216,1 5.904,1 C2.664,1 0,3.664 0,6.976 Z" id="i" fill="#231F20" fill-rule="nonzero"></path>
            <path d="M88.209,18 L79.041,18 L65.76,39.509 L65.76,39.424 L57.88,52.184 L57.88,53.38 L66.209,53.38 L76.235,37.389 L88.209,18 Z M57.88,49.9 L65.76,37.139 L65.76,18 L57.88,18 L57.88,49.9 Z M41.909,53.38 L49.739,53.38 L49.739,19.709 L41.909,32.387 L41.909,53.38 Z M40.994,31.584 L49.384,18 L40.162,18 L28.809,36.384 L28.811,36.385 L19,52.272 L19,53.38 L27.329,53.38 L40.994,31.584 Z M19,49.988 L26.88,37.228 L26.88,18 L19,18 L19,49.988 Z M80.789,32.299 L80.789,53.38 L88.618,53.38 L88.618,19.621 L80.789,32.299 Z" id="Fill-3" fill="#0965BC" fill-rule="nonzero"></path>
            <path d="M113.6418,46.0711154 C118.3218,46.0711154 122.6418,42.6871154 122.6418,35.9911154 C122.6418,29.2951154 118.3218,25.9111154 113.6418,25.9111154 C108.9618,25.9111154 104.6418,29.2951154 104.6418,35.9911154 C104.6418,42.6151154 108.9618,46.0711154 113.6418,46.0711154 Z M113.6418,17.1991154 C124.2258,17.1991154 132.2178,25.0471154 132.2178,35.9911154 C132.2178,46.8631154 124.2258,54.7831154 113.6418,54.7831154 C103.0578,54.7831154 95.0658,46.8631154 95.0658,35.9911154 C95.0658,25.0471154 103.0578,17.1991154 113.6418,17.1991154 Z M171.0258,18.2791154 L160.9458,18.2791154 L152.5218,42.0391154 L143.7378,18.2791154 L133.2258,18.2791154 L147.6978,53.7031154 L157.2738,53.7031154 L171.0258,18.2791154 Z M174.4098,44.0551154 C174.4098,37.7191154 179.0898,34.1911154 184.9938,33.3271154 L193.7058,32.0311154 C195.7218,31.7431154 196.3698,30.7351154 196.3698,29.5111154 C196.3698,26.9911154 194.4258,24.9031154 190.3938,24.9031154 C186.2178,24.9031154 183.9138,27.5671154 183.6258,30.6631154 L175.1298,28.8631154 C175.7058,23.3191154 180.8178,17.1991154 190.3218,17.1991154 C201.5538,17.1991154 205.7298,23.5351154 205.7298,30.6631154 L205.7298,48.0871154 C205.7298,49.9591154 205.9458,52.4791154 206.1618,53.7031154 L197.3778,53.7031154 C197.1618,52.7671154 197.0178,50.8231154 197.0178,49.4551154 C195.2178,52.2631154 191.8338,54.7111154 186.5778,54.7111154 C179.0178,54.7111154 174.4098,49.5991154 174.4098,44.0551154 Z M188.5938,47.5831154 C192.6258,47.5831154 196.3698,45.6391154 196.3698,39.3751154 L196.3698,37.7911154 L188.3778,39.0151154 C185.9298,39.3751154 183.9858,40.7431154 183.9858,43.4791154 C183.9858,45.5671154 185.4978,47.5831154 188.5938,47.5831154 Z M231.0018,26.0551154 C235.7538,26.0551154 237.9858,29.0791154 238.8498,32.0311154 L247.4178,29.1511154 C245.9058,23.1751154 240.4338,17.1991154 230.7858,17.1991154 C220.4898,17.1991154 212.4258,25.0471154 212.4258,35.9911154 C212.4258,46.8631154 220.6338,54.7831154 231.0738,54.7831154 C240.5058,54.7831154 246.0498,48.7351154 247.6338,42.8311154 L239.2098,40.0231154 C238.4178,42.7591154 235.9698,45.9991154 231.0738,45.9991154 C226.1778,45.9991154 222.0018,42.3991154 222.0018,35.9911154 C222.0018,29.5831154 226.1058,26.0551154 231.0018,26.0551154 Z M264.2658,53.7031154 L264.2658,18.2791154 L254.6898,18.2791154 L254.6898,53.7031154 L264.2658,53.7031154 Z M253.5378,6.68711542 C253.5378,9.85511542 256.2018,12.5191154 259.4418,12.5191154 C262.7538,12.5191154 265.3458,9.85511542 265.3458,6.68711542 C265.3458,3.37511542 262.7538,0.711115421 259.4418,0.711115421 C256.2018,0.711115421 253.5378,3.37511542 253.5378,6.68711542 Z M290.4018,46.0711154 C295.0818,46.0711154 299.4018,42.6871154 299.4018,35.9911154 C299.4018,29.2951154 295.0818,25.9111154 290.4018,25.9111154 C285.7218,25.9111154 281.4018,29.2951154 281.4018,35.9911154 C281.4018,42.6151154 285.7218,46.0711154 290.4018,46.0711154 Z M290.4018,17.1991154 C300.9858,17.1991154 308.9778,25.0471154 308.9778,35.9911154 C308.9778,46.8631154 300.9858,54.7831154 290.4018,54.7831154 C279.8178,54.7831154 271.8258,46.8631154 271.8258,35.9911154 C271.8258,25.0471154 279.8178,17.1991154 290.4018,17.1991154 Z M375.9778,7.71111542 L367.3378,7.71111542 L367.3378,12.6791154 C367.3378,15.8471154 365.6098,18.2951154 361.8658,18.2951154 L360.0658,18.2951154 L360.0658,26.7911154 L366.4738,26.7911154 L366.4738,43.2791154 C366.4738,50.1191154 370.7938,54.2231154 377.7058,54.2231154 C380.5138,54.2231154 382.2418,53.7191154 383.1058,53.3591154 L383.1058,45.4391154 C382.6018,45.5831154 381.3058,45.7271154 380.1538,45.7271154 C377.4178,45.7271154 375.9778,44.7191154 375.9778,41.6231154 L375.9778,26.7911154 L383.1058,26.7911154 L383.1058,18.2951154 L375.9778,18.2951154 L375.9778,7.71111542 Z M390.0658,44.5671154 C390.0658,38.2311154 394.7458,34.7031154 400.6498,33.8391154 L409.3618,32.5431154 C411.3778,32.2551154 412.0258,31.2471154 412.0258,30.0231154 C412.0258,27.5031154 410.0818,25.4151154 406.0498,25.4151154 C401.8738,25.4151154 399.5698,28.0791154 399.2818,31.1751154 L390.7858,29.3751154 C391.3618,23.8311154 396.4738,17.7111154 405.9778,17.7111154 C417.2098,17.7111154 421.3858,24.0471154 421.3858,31.1751154 L421.3858,48.5991154 C421.3858,50.4711154 421.6018,52.9911154 421.8178,54.2151154 L413.0338,54.2151154 C412.8178,53.2791154 412.6738,51.3351154 412.6738,49.9671154 C410.8738,52.7751154 407.4898,55.2231154 402.2338,55.2231154 C394.6738,55.2231154 390.0658,50.1111154 390.0658,44.5671154 Z M404.6738,47.5031154 C408.7058,47.5031154 412.4498,45.5591154 412.4498,39.2951154 L412.4498,37.7111154 L404.4578,38.9351154 C402.0098,39.2951154 400.0658,40.6631154 400.0658,43.3991154 C400.0658,45.4871154 401.5778,47.5031154 404.6738,47.5031154 Z M440.6418,33.6951154 C440.6418,29.5911154 443.0898,26.3511154 447.2658,26.3511154 C451.8738,26.3511154 453.8178,29.4471154 453.8178,33.4071154 L453.8178,54.0711154 L463.3938,54.0711154 L463.3938,31.7511154 C463.3938,23.9751154 459.3618,17.7111154 450.5778,17.7111154 C446.7618,17.7111154 442.5138,19.3671154 440.3538,23.0391154 L440.3538,18.6471154 L431.0658,18.6471154 L431.0658,54.0711154 L440.6418,54.0711154 L440.6418,33.6951154 Z M471.0658,44.5671154 C471.0658,38.2311154 475.7458,34.7031154 481.6498,33.8391154 L490.3618,32.5431154 C492.3778,32.2551154 493.0258,31.2471154 493.0258,30.0231154 C493.0258,27.5031154 491.0818,25.4151154 487.0498,25.4151154 C482.8738,25.4151154 480.5698,28.0791154 480.2818,31.1751154 L471.7858,29.3751154 C472.3618,23.8311154 477.4738,17.7111154 486.9778,17.7111154 C498.2098,17.7111154 502.3858,24.0471154 502.3858,31.1751154 L502.3858,48.5991154 C502.3858,50.4711154 502.6018,52.9911154 502.8178,54.2151154 L494.0338,54.2151154 C493.8178,53.2791154 493.6738,51.3351154 493.6738,49.9671154 C491.8738,52.7751154 488.4898,55.2231154 483.2338,55.2231154 C475.6738,55.2231154 471.0658,50.1111154 471.0658,44.5671154 Z M662.0658,44.5671154 C662.0658,38.2311154 666.7458,34.7031154 672.6498,33.8391154 L681.3618,32.5431154 C683.3778,32.2551154 684.0258,31.2471154 684.0258,30.0231154 C684.0258,27.5031154 682.0818,25.4151154 678.0498,25.4151154 C673.8738,25.4151154 671.5698,28.0791154 671.2818,31.1751154 L662.7858,29.3751154 C663.3618,23.8311154 668.4738,17.7111154 677.9778,17.7111154 C689.2098,17.7111154 693.3858,24.0471154 693.3858,31.1751154 L693.3858,48.5991154 C693.3858,50.4711154 693.6018,52.9911154 693.8178,54.2151154 L685.0338,54.2151154 C684.8178,53.2791154 684.6738,51.3351154 684.6738,49.9671154 C682.8738,52.7751154 679.4898,55.2231154 674.2338,55.2231154 C666.6738,55.2231154 662.0658,50.1111154 662.0658,44.5671154 Z M485.6738,47.5031154 C489.7058,47.5031154 493.4498,45.5591154 493.4498,39.2951154 L493.4498,37.7111154 L485.4578,38.9351154 C483.0098,39.2951154 481.0658,40.6631154 481.0658,43.3991154 C481.0658,45.4871154 482.5778,47.5031154 485.6738,47.5031154 Z M675.6738,47.5031154 C679.7058,47.5031154 683.4498,45.5591154 683.4498,39.2951154 L683.4498,37.7111154 L675.4578,38.9351154 C673.0098,39.2951154 671.0658,40.6631154 671.0658,43.3991154 C671.0658,45.4871154 672.5778,47.5031154 675.6738,47.5031154 Z M527.6418,26.5671154 C532.3938,26.5671154 534.6258,29.5911154 535.4898,32.5431154 L544.0578,29.6631154 C542.5458,23.6871154 537.0738,17.7111154 527.4258,17.7111154 C517.1298,17.7111154 509.0658,25.5591154 509.0658,36.5031154 C509.0658,47.3751154 517.2738,55.2951154 527.7138,55.2951154 C537.1458,55.2951154 542.6898,49.2471154 544.2738,43.3431154 L535.8498,40.5351154 C535.0578,43.2711154 532.6098,46.5111154 527.7138,46.5111154 C522.8178,46.5111154 518.6418,42.9111154 518.6418,36.5031154 C518.6418,30.0951154 522.7458,26.5671154 527.6418,26.5671154 Z M548.0658,44.3511154 C548.4978,48.3831154 552.1698,55.2951154 562.8258,55.2951154 C572.1138,55.2951154 576.5778,49.3911154 576.5778,43.6311154 C576.5778,38.4471154 573.0498,34.1991154 566.0658,32.7591154 L561.0258,31.6791154 C559.0818,31.3191154 557.7858,30.2391154 557.7858,28.5111154 C557.7858,26.4951154 559.8018,24.9831154 562.3218,24.9831154 C566.3538,24.9831154 567.8658,27.6471154 568.1538,29.7351154 L576.1458,27.9351154 C575.7138,24.1191154 572.3298,17.7111154 562.2498,17.7111154 C554.6178,17.7111154 549.0018,22.9671154 549.0018,29.3031154 C549.0018,34.2711154 552.0978,38.3751154 558.9378,39.8871154 L563.6178,40.9671154 C566.3538,41.5431154 567.4338,42.8391154 567.4338,44.4231154 C567.4338,46.2951154 565.9218,47.9511154 562.7538,47.9511154 C558.5778,47.9511154 556.4898,45.3591154 556.2738,42.5511154 L548.0658,44.3511154 Z M698.0658,44.3511154 C698.4978,48.3831154 702.1698,55.2951154 712.8258,55.2951154 C722.1138,55.2951154 726.5778,49.3911154 726.5778,43.6311154 C726.5778,38.4471154 723.0498,34.1991154 716.0658,32.7591154 L711.0258,31.6791154 C709.0818,31.3191154 707.7858,30.2391154 707.7858,28.5111154 C707.7858,26.4951154 709.8018,24.9831154 712.3218,24.9831154 C716.3538,24.9831154 717.8658,27.6471154 718.1538,29.7351154 L726.1458,27.9351154 C725.7138,24.1191154 722.3298,17.7111154 712.2498,17.7111154 C704.6178,17.7111154 699.0018,22.9671154 699.0018,29.3031154 C699.0018,34.2711154 702.0978,38.3751154 708.9378,39.8871154 L713.6178,40.9671154 C716.3538,41.5431154 717.4338,42.8391154 717.4338,44.4231154 C717.4338,46.2951154 715.9218,47.9511154 712.7538,47.9511154 C708.5778,47.9511154 706.4898,45.3591154 706.2738,42.5511154 L698.0658,44.3511154 Z M582.0658,44.5671154 C582.0658,38.2311154 586.7458,34.7031154 592.6498,33.8391154 L601.3618,32.5431154 C603.3778,32.2551154 604.0258,31.2471154 604.0258,30.0231154 C604.0258,27.5031154 602.0818,25.4151154 598.0498,25.4151154 C593.8738,25.4151154 591.5698,28.0791154 591.2818,31.1751154 L582.7858,29.3751154 C583.3618,23.8311154 588.4738,17.7111154 597.9778,17.7111154 C609.2098,17.7111154 613.3858,24.0471154 613.3858,31.1751154 L613.3858,48.5991154 C613.3858,50.4711154 613.6018,52.9911154 613.8178,54.2151154 L605.0338,54.2151154 C604.8178,53.2791154 604.6738,51.3351154 604.6738,49.9671154 C602.8738,52.7751154 599.4898,55.2231154 594.2338,55.2231154 C586.6738,55.2231154 582.0658,50.1111154 582.0658,44.5671154 Z M595.6738,47.5031154 C599.7058,47.5031154 603.4498,45.5591154 603.4498,39.2951154 L603.4498,37.7111154 L595.4578,38.9351154 C593.0098,39.2951154 591.0658,40.6631154 591.0658,43.3991154 C591.0658,45.4871154 592.5778,47.5031154 595.6738,47.5031154 Z M656.4978,1.71111542 L656.4978,47.4311154 C656.4978,49.8071154 656.6418,52.3991154 656.7858,53.8391154 L647.6418,53.8391154 C647.4978,53.1191154 647.2818,51.3911154 647.2818,49.7351154 C645.6978,52.5431154 642.0978,54.7031154 637.3458,54.7031154 C627.2658,54.7031154 620.0658,46.7831154 620.0658,36.0551154 C620.0658,25.6871154 627.0498,17.5511154 637.0578,17.5511154 C643.1778,17.5511154 646.0578,20.0711154 647.0658,21.9431154 L647.0658,1.71111542 L656.4978,1.71111542 Z M629.0658,35.6471154 C629.0658,41.9831154 632.8098,45.7271154 637.8498,45.7271154 C642.7458,45.7271154 646.5618,41.9831154 646.5618,35.5751154 C646.5618,29.2391154 642.7458,25.7111154 637.8498,25.7111154 C632.9538,25.7111154 629.0658,29.3111154 629.0658,35.6471154 Z" id="ovaciostanacsado" fill="#231F20" fill-rule="nonzero"></path>
            <g id="apos" transform="translate(188.000000, 1.000000)" fill="#231F20">
                <polygon id="贸" points="488 9.40429688 495.060547 0 503 0 493.595703 9.40429688"></polygon>
                <polygon id="贸" points="297 9.40429688 304.060547 0 312 0 302.595703 9.40429688"></polygon>
                <polygon id="贸" points="100 9.40429688 107.060547 0 115 0 105.595703 9.40429688"></polygon>
                <polygon id="贸" points="0 9.40429688 7.06054688 0 15 0 5.59570312 9.40429688"></polygon>
            </g>
            <polygon id="+" fill="#0965BC" points="331.740234 48.8183594 331.740234 37.65625 320.490234 37.65625 320.490234 29.9511719 331.740234 29.9511719 331.740234 18.7890625 339.240234 18.7890625 339.240234 29.9511719 350.519531 29.9511719 350.519531 37.65625 339.240234 37.65625 339.240234 48.8183594"></polygon>
        </g>
    </g>
</svg>