<?xml version="1.0" encoding="UTF-8"?>
<svg width="627px" height="49px" viewBox="0 0 627 49" version="1.1" xmlns="http://www.w3.org/2000/svg" xmlns:xlink="http://www.w3.org/1999/xlink">
    <!-- Generator: Sketch 48.2 (47327) - http://www.bohemiancoding.com/sketch -->
    <title>logo.max</title>
    <desc>Created with Sketch.</desc>
    <defs>
        <path d="M0,47.8848632 L0,1.75652105 L9.06662622,1.75652105 L9.06662622,47.8848632 L0,47.8848632 Z M99.0788564,40.9885 C103.288359,40.9885 107.174037,37.9306421 107.174037,31.8799158 C107.174037,25.8291895 103.288359,22.7713316 99.0788564,22.7713316 C94.8693542,22.7713316 90.9836759,25.8291895 90.9836759,31.8799158 C90.9836759,37.8656526 94.8693542,40.9885 99.0788564,40.9885 Z M99.0788564,14.8990947 C108.598789,14.8990947 115.787331,21.9906842 115.787331,31.8799158 C115.787331,41.7041579 108.598789,48.8609947 99.0788564,48.8609947 C89.5588976,48.8609947 82.3703822,41.7041579 82.3703822,31.8799158 C82.3703822,21.9906842 89.5588976,14.8990947 99.0788564,14.8990947 Z M150.286393,15.8749684 L137.916878,47.8848632 L129.30361,47.8848632 L116.286525,15.8749684 L125.74173,15.8749684 L133.642621,37.3449632 L141.219715,15.8749684 L150.286393,15.8749684 Z M151.52311,39.1667316 C151.52311,33.4414684 155.732534,30.2533737 161.043173,29.4727263 L168.879102,28.3016263 C170.692485,28.0414105 171.275404,27.1305263 171.275404,26.0244158 C171.275404,23.7472053 169.526906,21.8604474 165.900141,21.8604474 C162.144128,21.8604474 160.071728,24.2678947 159.81271,27.0655368 L152.170654,25.4389947 C152.688689,20.4291316 157.2869,14.8990947 165.835517,14.8990947 C175.938239,14.8990947 179.694252,20.6243579 179.694252,27.0655368 L179.694252,42.8102684 C179.694252,44.5018 179.888646,46.7790105 180.083039,47.8848632 L172.181965,47.8848632 C171.987832,47.0392263 171.858324,45.2824474 171.858324,44.0463579 C170.239074,46.5837842 167.195489,48.7957474 162.467769,48.7957474 C155.66791,48.7957474 151.52311,44.1765947 151.52311,39.1667316 Z M164.281152,42.3548263 C167.907656,42.3548263 171.275404,40.5980474 171.275404,34.9377737 L171.275404,33.5064579 L164.086759,34.6125684 C161.88485,34.9377737 160.136352,36.1738632 160.136352,38.6463 C160.136352,40.5330579 161.496324,42.3548263 164.281152,42.3548263 Z M177.557228,2.27721053 L168.749593,12.0362053 L161.820226,12.0362053 L167.713524,2.27721053 L177.557228,2.27721053 Z M201.575753,22.9015684 C197.171935,22.9015684 193.480546,26.0894053 193.480546,31.8799158 C193.480546,37.6704263 197.236559,40.9235105 201.640377,40.9235105 C206.044194,40.9235105 208.246103,37.9956316 208.958531,35.5234526 L216.535703,38.0606211 C215.110846,43.3956895 210.12411,48.8609947 201.640377,48.8609947 C192.250083,48.8609947 184.867305,41.7041579 184.867305,31.8799158 C184.867305,21.9906842 192.120574,14.8990947 201.381359,14.8990947 C210.059485,14.8990947 214.981338,20.2991526 216.34131,25.6992105 L208.634629,28.3016263 C207.857577,25.6339632 205.850061,22.9015684 201.575753,22.9015684 Z M221.631884,47.8848632 L221.631884,15.8749684 L230.245125,15.8749684 L230.245125,47.8848632 L221.631884,47.8848632 Z M220.595814,5.40005789 C220.595814,2.40718947 222.991856,0 225.906193,0 C228.885154,0 231.216571,2.40718947 231.216571,5.40005789 C231.216571,8.26268947 228.885154,10.6701368 225.906193,10.6701368 C222.991856,10.6701368 220.595814,8.26268947 220.595814,5.40005789 Z M263.791791,2.27721053 L254.984156,12.0362053 L248.054788,12.0362053 L253.948086,2.27721053 L263.791791,2.27721053 Z M252.458345,40.9885 C256.66803,40.9885 260.553552,37.9306421 260.553552,31.8799158 C260.553552,25.8291895 256.66803,22.7713316 252.458345,22.7713316 C248.248921,22.7713316 244.363139,25.8291895 244.363139,31.8799158 C244.363139,37.8656526 248.248921,40.9885 252.458345,40.9885 Z M252.458345,14.8990947 C261.978408,14.8990947 269.167054,21.9906842 269.167054,31.8799158 C269.167054,41.7041579 261.978408,48.8609947 252.458345,48.8609947 C242.938543,48.8609947 235.749897,41.7041579 235.749897,31.8799158 C235.749897,21.9906842 242.938543,14.8990947 252.458345,14.8990947 Z M272.333112,38.9715053 L279.71589,37.3449632 C279.910284,39.8823895 281.78829,42.2245895 285.544304,42.2245895 C288.394017,42.2245895 289.753988,40.7282842 289.753988,39.0367526 C289.753988,37.6054368 288.782543,36.4343368 286.321617,35.9136474 L282.111932,34.9377737 C275.959617,33.5714474 273.175049,29.8629211 273.175049,25.3737474 C273.175049,19.6484842 278.22641,14.8990947 285.091154,14.8990947 C294.157806,14.8990947 297.201391,20.6893474 297.590178,24.1376579 L290.401532,25.7642 C290.142515,23.8774421 288.782543,21.4702526 285.155778,21.4702526 C282.889245,21.4702526 281.075862,22.8363211 281.075862,24.6580895 C281.075862,26.2196421 282.241701,27.1955158 283.990199,27.5207211 L288.523525,28.4968526 C294.805349,29.7979316 297.978704,33.6366947 297.978704,38.3210947 C297.978704,43.5259263 293.963412,48.8609947 285.609188,48.8609947 C276.024501,48.8609947 272.721638,42.6150421 272.333112,38.9715053 Z M356.004861,10.2796842 L341.498322,10.2796842 L341.498322,47.8848632 L332.496554,47.8848632 L332.496554,10.2796842 L317.990015,10.2796842 L317.990015,1.75652105 L356.004861,1.75652105 L356.004861,10.2796842 Z M352.5592,39.1667316 C352.5592,33.4414684 356.768624,30.2533737 362.079002,29.4727263 L369.915192,28.3016263 C371.728574,28.0414105 372.311494,27.1305263 372.311494,26.0244158 C372.311494,23.7472053 370.562735,21.8604474 366.936231,21.8604474 C363.179957,21.8604474 361.107557,24.2678947 360.848539,27.0655368 L353.206744,25.4389947 C353.724778,20.4291316 358.322989,14.8990947 366.871346,14.8990947 C376.974329,14.8990947 380.730342,20.6243579 380.730342,27.0655368 L380.730342,42.8102684 C380.730342,44.5018 380.924735,46.7790105 381.118868,47.8848632 L373.218055,47.8848632 C373.023661,47.0392263 372.894153,45.2824474 372.894153,44.0463579 C371.275163,46.5837842 368.231318,48.7957474 363.503859,48.7957474 C356.703739,48.7957474 352.5592,44.1765947 352.5592,39.1667316 Z M365.317241,42.3548263 C368.943746,42.3548263 372.311494,40.5980474 372.311494,34.9377737 L372.311494,33.5064579 L365.122848,34.6125684 C362.920939,34.9377737 361.172441,36.1738632 361.172441,38.6463 C361.172441,40.5330579 362.532413,42.3548263 365.317241,42.3548263 Z M396.660695,29.4727263 L396.660695,47.8848632 L388.047454,47.8848632 L388.047454,15.8749684 L396.401678,15.8749684 L396.401678,19.8437105 C398.344569,16.5256368 402.165467,15.0290737 405.597839,15.0290737 C413.498913,15.0290737 417.125417,20.6893474 417.125417,27.7159474 L417.125417,47.8848632 L408.512176,47.8848632 L408.512176,29.2125105 C408.512176,25.6339632 406.763678,22.8363211 402.618878,22.8363211 C398.862604,22.8363211 396.660695,25.7642 396.660695,29.4727263 Z M422.830837,39.1667316 C422.830837,33.4414684 427.040261,30.2533737 432.350639,29.4727263 L440.186828,28.3016263 C442.000211,28.0414105 442.58313,27.1305263 442.58313,26.0244158 C442.58313,23.7472053 440.834372,21.8604474 437.207867,21.8604474 C433.451593,21.8604474 431.379193,24.2678947 431.120176,27.0655368 L423.47838,25.4389947 C423.996415,20.4291316 428.594626,14.8990947 437.142983,14.8990947 C447.245965,14.8990947 451.001978,20.6243579 451.001978,27.0655368 L451.001978,42.8102684 C451.001978,44.5018 451.196372,46.7790105 451.390505,47.8848632 L443.489691,47.8848632 C443.295298,47.0392263 443.165789,45.2824474 443.165789,44.0463579 C441.5468,46.5837842 438.502954,48.7957474 433.775495,48.7957474 C426.975637,48.7957474 422.830837,44.1765947 422.830837,39.1667316 Z M435.588878,42.3548263 C439.215383,42.3548263 442.58313,40.5980474 442.58313,34.9377737 L442.58313,33.5064579 L435.394485,34.6125684 C433.192576,34.9377737 431.444078,36.1738632 431.444078,38.6463 C431.444078,40.5330579 432.80405,42.3548263 435.588878,42.3548263 Z M448.864954,2.27721053 L440.05732,12.0362053 L433.127952,12.0362053 L439.02125,2.27721053 L448.864954,2.27721053 Z M472.884261,22.9015684 C468.480443,22.9015684 464.789054,26.0894053 464.789054,31.8799158 C464.789054,37.6704263 468.545328,40.9235105 472.948885,40.9235105 C477.352702,40.9235105 479.554611,37.9956316 480.267039,35.5234526 L487.843168,38.0606211 C486.418573,43.3956895 481.432878,48.8609947 472.948885,48.8609947 C463.557809,48.8609947 456.175812,41.7041579 456.175812,31.8799158 C456.175812,21.9906842 463.429082,14.8990947 472.689867,14.8990947 C481.367993,14.8990947 486.289846,20.2991526 487.649817,25.6992105 L479.943137,28.3016263 C479.166085,25.6339632 477.157527,22.9015684 472.884261,22.9015684 Z M491.146032,38.9715053 L498.52881,37.3449632 C498.723203,39.8823895 500.60121,42.2245895 504.357484,42.2245895 C507.206936,42.2245895 508.566908,40.7282842 508.566908,39.0367526 C508.566908,37.6054368 507.595462,36.4343368 505.134536,35.9136474 L500.925112,34.9377737 C494.772797,33.5714474 491.987968,29.8629211 491.987968,25.3737474 C491.987968,19.6484842 497.039329,14.8990947 503.904073,14.8990947 C512.970725,14.8990947 516.014571,20.6893474 516.403097,24.1376579 L509.214451,25.7642 C508.955434,23.8774421 507.595462,21.4702526 503.968958,21.4702526 C501.702164,21.4702526 499.888782,22.8363211 499.888782,24.6580895 C499.888782,26.2196421 501.054621,27.1955158 502.803119,27.5207211 L507.336445,28.4968526 C513.618269,29.7979316 516.791623,33.6366947 516.791623,38.3210947 C516.791623,43.5259263 512.776332,48.8609947 504.422108,48.8609947 C494.837421,48.8609947 491.534558,42.6150421 491.146032,38.9715053 Z M521.02007,39.1667316 C521.02007,33.4414684 525.229494,30.2533737 530.539872,29.4727263 L538.376061,28.3016263 C540.189444,28.0414105 540.772363,27.1305263 540.772363,26.0244158 C540.772363,23.7472053 539.023866,21.8604474 535.3971,21.8604474 C531.640827,21.8604474 529.568687,24.2678947 529.309409,27.0655368 L521.667613,25.4389947 C522.185648,20.4291316 526.783859,14.8990947 535.332476,14.8990947 C545.435198,14.8990947 549.191212,20.6243579 549.191212,27.0655368 L549.191212,42.8102684 C549.191212,44.5018 549.385605,46.7790105 549.579998,47.8848632 L541.678924,47.8848632 C541.484792,47.0392263 541.355283,45.2824474 541.355283,44.0463579 C539.736033,46.5837842 536.692448,48.7957474 531.964729,48.7957474 C525.16487,48.7957474 521.02007,44.1765947 521.02007,39.1667316 Z M533.778111,42.3548263 C537.404616,42.3548263 540.772363,40.5980474 540.772363,34.9377737 L540.772363,33.5064579 L533.583718,34.6125684 C531.381809,34.9377737 529.633311,36.1738632 529.633311,38.6463 C529.633311,40.5330579 530.993283,42.3548263 533.778111,42.3548263 Z M587.134398,0.780647368 L587.134398,42.0946105 C587.134398,44.2415842 587.263907,46.5837842 587.393416,47.8848632 L579.1687,47.8848632 C579.039192,47.2344526 578.844798,45.6729 578.844798,44.1765947 C577.420202,46.7137632 574.181963,48.6657684 569.907915,48.6657684 C560.841263,48.6657684 554.365046,41.5089316 554.365046,31.8149263 C554.365046,22.4461263 560.64687,15.0940632 569.648898,15.0940632 C575.153409,15.0940632 577.743844,17.3712737 578.650666,19.0628053 L578.650666,0.780647368 L587.134398,0.780647368 Z M563.043172,31.8149263 C563.043172,37.5401895 566.410659,40.9235105 570.943985,40.9235105 C575.347802,40.9235105 578.780174,37.5401895 578.780174,31.7499368 C578.780174,26.0244158 575.347802,22.8363211 570.943985,22.8363211 C566.540168,22.8363211 563.043172,26.0894053 563.043172,31.8149263 Z M620.841842,2.27721053 L612.034207,12.0362053 L605.10484,12.0362053 L610.998138,2.27721053 L620.841842,2.27721053 Z M609.508657,40.9885 C613.718081,40.9885 617.603864,37.9306421 617.603864,31.8799158 C617.603864,25.8291895 613.718081,22.7713316 609.508657,22.7713316 C605.298973,22.7713316 601.413451,25.8291895 601.413451,31.8799158 C601.413451,37.8656526 605.298973,40.9885 609.508657,40.9885 Z M609.508657,14.8990947 C619.02846,14.8990947 626.217105,21.9906842 626.217105,31.8799158 C626.217105,41.7041579 619.02846,48.8609947 609.508657,48.8609947 C599.988594,48.8609947 592.800209,41.7041579 592.800209,31.8799158 C592.800209,21.9906842 599.988594,14.8990947 609.508657,14.8990947 Z" id="path-1"></path>
        <path d="M64.412998,2.57092308 L53.71093,19.7215692 L44.749952,33.8663538 L37.305684,33.8663538 L37.305684,32.8084308 L44.348642,21.5214769 L44.348642,21.5968 L56.218864,2.57092308 L64.412998,2.57092308 Z M37.305684,30.7880462 L37.305684,2.57092308 L44.348642,2.57092308 L44.348642,19.5003077 L37.305684,30.7880462 Z M23.031216,33.8663538 L23.031216,15.2968615 L30.02948,4.08261538 L30.02948,33.8663538 L23.031216,33.8663538 Z M22.213412,14.5865231 L9.999964,33.8663538 L2.555722,33.8663538 L2.555722,32.8863692 L11.324534,18.8333846 L11.32274,18.8326 L21.469786,2.57092308 L29.712176,2.57092308 L22.213412,14.5865231 Z M2.555722,30.8659846 L2.555722,2.57092308 L9.598654,2.57092308 L9.598654,19.5790308 L2.555722,30.8659846 Z M57.781178,15.2191846 L64.778558,4.00467692 L64.778558,33.8663538 L57.781178,33.8663538 L57.781178,15.2191846 Z" id="path-3"></path>
    </defs>
    <g id="Artboard" stroke="none" stroke-width="1" fill="none" fill-rule="evenodd" transform="translate(-111.000000, -134.000000)">
        <g id="logo-ulf" transform="translate(111.000000, 134.000000)">
            <g>
                <g id="Group-10">
                    <mask id="mask-2" fill="white">
                        <use xlink:href="#path-1"></use>
                    </mask>
                    <g id="Clip-9"></g>
                    <polygon id="Fill-8" fill="#1D1D1B" mask="url(#mask-2)" points="-13.0290456 61.7557316 639.246151 61.7557316 639.246151 -12.8947368 -13.0290456 -12.8947368"></polygon>
                </g>
                <g id="Group-13" transform="translate(13.000000, 13.000000)">
                    <mask id="mask-4" fill="white">
                        <use xlink:href="#path-3"></use>
                    </mask>
                    <g id="Clip-12"></g>
                    <polygon id="Fill-11" fill="#0965BC" mask="url(#mask-4)" points="-10.444278 46.9432769 77.778558 46.9432769 77.778558 -10.506 -10.444278 -10.506"></polygon>
                </g>
            </g>
        </g>
    </g>
</svg>