<?xml version="1.0" encoding="UTF-8"?>
<svg width="729px" height="55px" viewBox="0 0 729 55" version="1.1" xmlns="http://www.w3.org/2000/svg" xmlns:xlink="http://www.w3.org/1999/xlink">
    <!-- Generator: Sketch 46.2 (44496) - http://www.bohemiancoding.com/sketch -->
    <title>logo</title>
    <desc>Created with Sketch.</desc>
    <defs></defs>
    <g id="Page-1" stroke="none" stroke-width="1" fill="none" fill-rule="evenodd">
        <g id="logo" fill-rule="nonzero">
            <path d="M10.728,53.992 L10.728,18.568 L1.152,18.568 L1.152,53.992 L10.728,53.992 Z M0,6.976 C0,10.144 2.664,12.808 5.904,12.808 C9.216,12.808 11.808,10.144 11.808,6.976 C11.808,3.664 9.216,1 5.904,1 C2.664,1 0,3.664 0,6.976 Z" id="i" fill="#231F20"></path>
            <path d="M88.209,18 L79.041,18 L65.76,39.509 L65.76,39.424 L57.88,52.184 L57.88,53.38 L66.209,53.38 L76.235,37.389 L88.209,18 Z M57.88,49.9 L65.76,37.139 L65.76,18 L57.88,18 L57.88,49.9 Z M41.909,53.38 L49.739,53.38 L49.739,19.709 L41.909,32.387 L41.909,53.38 Z M40.994,31.584 L49.384,18 L40.162,18 L28.809,36.384 L28.811,36.385 L19,52.272 L19,53.38 L27.329,53.38 L40.994,31.584 Z M19,49.988 L26.88,37.228 L26.88,18 L19,18 L19,49.988 Z M80.789,32.299 L80.789,53.38 L88.618,53.38 L88.618,19.621 L80.789,32.299 Z" id="Fill-3" fill="#0965BC"></path>
            <path d="M113.6418,46.0711154 C118.3218,46.0711154 122.6418,42.6871154 122.6418,35.9911154 C122.6418,29.2951154 118.3218,25.9111154 113.6418,25.9111154 C108.9618,25.9111154 104.6418,29.2951154 104.6418,35.9911154 C104.6418,42.6151154 108.9618,46.0711154 113.6418,46.0711154 Z M113.6418,17.1991154 C124.2258,17.1991154 132.2178,25.0471154 132.2178,35.9911154 C132.2178,46.8631154 124.2258,54.7831154 113.6418,54.7831154 C103.0578,54.7831154 95.0658,46.8631154 95.0658,35.9911154 C95.0658,25.0471154 103.0578,17.1991154 113.6418,17.1991154 Z M171.0258,18.2791154 L160.9458,18.2791154 L152.5218,42.0391154 L143.7378,18.2791154 L133.2258,18.2791154 L147.6978,53.7031154 L157.2738,53.7031154 L171.0258,18.2791154 Z M174.4098,44.0551154 C174.4098,37.7191154 179.0898,34.1911154 184.9938,33.3271154 L193.7058,32.0311154 C195.7218,31.7431154 196.3698,30.7351154 196.3698,29.5111154 C196.3698,26.9911154 194.4258,24.9031154 190.3938,24.9031154 C186.2178,24.9031154 183.9138,27.5671154 183.6258,30.6631154 L175.1298,28.8631154 C175.7058,23.3191154 180.8178,17.1991154 190.3218,17.1991154 C201.5538,17.1991154 205.7298,23.5351154 205.7298,30.6631154 L205.7298,48.0871154 C205.7298,49.9591154 205.9458,52.4791154 206.1618,53.7031154 L197.3778,53.7031154 C197.1618,52.7671154 197.0178,50.8231154 197.0178,49.4551154 C195.2178,52.2631154 191.8338,54.7111154 186.5778,54.7111154 C179.0178,54.7111154 174.4098,49.5991154 174.4098,44.0551154 Z M188.5938,47.5831154 C192.6258,47.5831154 196.3698,45.6391154 196.3698,39.3751154 L196.3698,37.7911154 L188.3778,39.0151154 C185.9298,39.3751154 183.9858,40.7431154 183.9858,43.4791154 C183.9858,45.5671154 185.4978,47.5831154 188.5938,47.5831154 Z M231.0018,26.0551154 C235.7538,26.0551154 237.9858,29.0791154 238.8498,32.0311154 L247.4178,29.1511154 C245.9058,23.1751154 240.4338,17.1991154 230.7858,17.1991154 C220.4898,17.1991154 212.4258,25.0471154 212.4258,35.9911154 C212.4258,46.8631154 220.6338,54.7831154 231.0738,54.7831154 C240.5058,54.7831154 246.0498,48.7351154 247.6338,42.8311154 L239.2098,40.0231154 C238.4178,42.7591154 235.9698,45.9991154 231.0738,45.9991154 C226.1778,45.9991154 222.0018,42.3991154 222.0018,35.9911154 C222.0018,29.5831154 226.1058,26.0551154 231.0018,26.0551154 Z M264.2658,53.7031154 L264.2658,18.2791154 L254.6898,18.2791154 L254.6898,53.7031154 L264.2658,53.7031154 Z M253.5378,6.68711542 C253.5378,9.85511542 256.2018,12.5191154 259.4418,12.5191154 C262.7538,12.5191154 265.3458,9.85511542 265.3458,6.68711542 C265.3458,3.37511542 262.7538,0.711115421 259.4418,0.711115421 C256.2018,0.711115421 253.5378,3.37511542 253.5378,6.68711542 Z M290.4018,46.0711154 C295.0818,46.0711154 299.4018,42.6871154 299.4018,35.9911154 C299.4018,29.2951154 295.0818,25.9111154 290.4018,25.9111154 C285.7218,25.9111154 281.4018,29.2951154 281.4018,35.9911154 C281.4018,42.6151154 285.7218,46.0711154 290.4018,46.0711154 Z M710.4018,46.0711154 C715.0818,46.0711154 719.4018,42.6871154 719.4018,35.9911154 C719.4018,29.2951154 715.0818,25.9111154 710.4018,25.9111154 C705.7218,25.9111154 701.4018,29.2951154 701.4018,35.9911154 C701.4018,42.6151154 705.7218,46.0711154 710.4018,46.0711154 Z M290.4018,17.1991154 C300.9858,17.1991154 308.9778,25.0471154 308.9778,35.9911154 C308.9778,46.8631154 300.9858,54.7831154 290.4018,54.7831154 C279.8178,54.7831154 271.8258,46.8631154 271.8258,35.9911154 C271.8258,25.0471154 279.8178,17.1991154 290.4018,17.1991154 Z M710.4018,17.1991154 C720.9858,17.1991154 728.9778,25.0471154 728.9778,35.9911154 C728.9778,46.8631154 720.9858,54.7831154 710.4018,54.7831154 C699.8178,54.7831154 691.8258,46.8631154 691.8258,35.9911154 C691.8258,25.0471154 699.8178,17.1991154 710.4018,17.1991154 Z M404.9778,6.71111542 L396.3378,6.71111542 L396.3378,11.6791154 C396.3378,14.8471154 394.6098,17.2951154 390.8658,17.2951154 L389.0658,17.2951154 L389.0658,25.7911154 L395.4738,25.7911154 L395.4738,42.2791154 C395.4738,49.1191154 399.7938,53.2231154 406.7058,53.2231154 C409.5138,53.2231154 411.2418,52.7191154 412.1058,52.3591154 L412.1058,44.4391154 C411.6018,44.5831154 410.3058,44.7271154 409.1538,44.7271154 C406.4178,44.7271154 404.9778,43.7191154 404.9778,40.6231154 L404.9778,25.7911154 L412.1058,25.7911154 L412.1058,17.2951154 L404.9778,17.2951154 L404.9778,6.71111542 Z M419.0658,43.5671154 C419.0658,37.2311154 423.7458,33.7031154 429.6498,32.8391154 L438.3618,31.5431154 C440.3778,31.2551154 441.0258,30.2471154 441.0258,29.0231154 C441.0258,26.5031154 439.0818,24.4151154 435.0498,24.4151154 C430.8738,24.4151154 428.5698,27.0791154 428.2818,30.1751154 L419.7858,28.3751154 C420.3618,22.8311154 425.4738,16.7111154 434.9778,16.7111154 C446.2098,16.7111154 450.3858,23.0471154 450.3858,30.1751154 L450.3858,47.5991154 C450.3858,49.4711154 450.6018,51.9911154 450.8178,53.2151154 L442.0338,53.2151154 C441.8178,52.2791154 441.6738,50.3351154 441.6738,48.9671154 C439.8738,51.7751154 436.4898,54.2231154 431.2338,54.2231154 C423.6738,54.2231154 419.0658,49.1111154 419.0658,43.5671154 Z M433.6738,46.5031154 C437.7058,46.5031154 441.4498,44.5591154 441.4498,38.2951154 L441.4498,36.7111154 L433.4578,37.9351154 C431.0098,38.2951154 429.0658,39.6631154 429.0658,42.3991154 C429.0658,44.4871154 430.5778,46.5031154 433.6738,46.5031154 Z M469.6418,32.6951154 C469.6418,28.5911154 472.0898,25.3511154 476.2658,25.3511154 C480.8738,25.3511154 482.8178,28.4471154 482.8178,32.4071154 L482.8178,53.0711154 L492.3938,53.0711154 L492.3938,30.7511154 C492.3938,22.9751154 488.3618,16.7111154 479.5778,16.7111154 C475.7618,16.7111154 471.5138,18.3671154 469.3538,22.0391154 L469.3538,17.6471154 L460.0658,17.6471154 L460.0658,53.0711154 L469.6418,53.0711154 L469.6418,32.6951154 Z M500.0658,43.5671154 C500.0658,37.2311154 504.7458,33.7031154 510.6498,32.8391154 L519.3618,31.5431154 C521.3778,31.2551154 522.0258,30.2471154 522.0258,29.0231154 C522.0258,26.5031154 520.0818,24.4151154 516.0498,24.4151154 C511.8738,24.4151154 509.5698,27.0791154 509.2818,30.1751154 L500.7858,28.3751154 C501.3618,22.8311154 506.4738,16.7111154 515.9778,16.7111154 C527.2098,16.7111154 531.3858,23.0471154 531.3858,30.1751154 L531.3858,47.5991154 C531.3858,49.4711154 531.6018,51.9911154 531.8178,53.2151154 L523.0338,53.2151154 C522.8178,52.2791154 522.6738,50.3351154 522.6738,48.9671154 C520.8738,51.7751154 517.4898,54.2231154 512.2338,54.2231154 C504.6738,54.2231154 500.0658,49.1111154 500.0658,43.5671154 Z M514.6738,46.5031154 C518.7058,46.5031154 522.4498,44.5591154 522.4498,38.2951154 L522.4498,36.7111154 L514.4578,37.9351154 C512.0098,38.2951154 510.0658,39.6631154 510.0658,42.3991154 C510.0658,44.4871154 511.5778,46.5031154 514.6738,46.5031154 Z M556.6418,25.5671154 C561.3938,25.5671154 563.6258,28.5911154 564.4898,31.5431154 L573.0578,28.6631154 C571.5458,22.6871154 566.0738,16.7111154 556.4258,16.7111154 C546.1298,16.7111154 538.0658,24.5591154 538.0658,35.5031154 C538.0658,46.3751154 546.2738,54.2951154 556.7138,54.2951154 C566.1458,54.2951154 571.6898,48.2471154 573.2738,42.3431154 L564.8498,39.5351154 C564.0578,42.2711154 561.6098,45.5111154 556.7138,45.5111154 C551.8178,45.5111154 547.6418,41.9111154 547.6418,35.5031154 C547.6418,29.0951154 551.7458,25.5671154 556.6418,25.5671154 Z M577.0658,43.3511154 C577.4978,47.3831154 581.1698,54.2951154 591.8258,54.2951154 C601.1138,54.2951154 605.5778,48.3911154 605.5778,42.6311154 C605.5778,37.4471154 602.0498,33.1991154 595.0658,31.7591154 L590.0258,30.6791154 C588.0818,30.3191154 586.7858,29.2391154 586.7858,27.5111154 C586.7858,25.4951154 588.8018,23.9831154 591.3218,23.9831154 C595.3538,23.9831154 596.8658,26.6471154 597.1538,28.7351154 L605.1458,26.9351154 C604.7138,23.1191154 601.3298,16.7111154 591.2498,16.7111154 C583.6178,16.7111154 578.0018,21.9671154 578.0018,28.3031154 C578.0018,33.2711154 581.0978,37.3751154 587.9378,38.8871154 L592.6178,39.9671154 C595.3538,40.5431154 596.4338,41.8391154 596.4338,43.4231154 C596.4338,45.2951154 594.9218,46.9511154 591.7538,46.9511154 C587.5778,46.9511154 585.4898,44.3591154 585.2738,41.5511154 L577.0658,43.3511154 Z M314.0658,43.3511154 C314.4978,47.3831154 318.1698,54.2951154 328.8258,54.2951154 C338.1138,54.2951154 342.5778,48.3911154 342.5778,42.6311154 C342.5778,37.4471154 339.0498,33.1991154 332.0658,31.7591154 L327.0258,30.6791154 C325.0818,30.3191154 323.7858,29.2391154 323.7858,27.5111154 C323.7858,25.4951154 325.8018,23.9831154 328.3218,23.9831154 C332.3538,23.9831154 333.8658,26.6471154 334.1538,28.7351154 L342.1458,26.9351154 C341.7138,23.1191154 338.3298,16.7111154 328.2498,16.7111154 C320.6178,16.7111154 315.0018,21.9671154 315.0018,28.3031154 C315.0018,33.2711154 318.0978,37.3751154 324.9378,38.8871154 L329.6178,39.9671154 C332.3538,40.5431154 333.4338,41.8391154 333.4338,43.4231154 C333.4338,45.2951154 331.9218,46.9511154 328.7538,46.9511154 C324.5778,46.9511154 322.4898,44.3591154 322.2738,41.5511154 L314.0658,43.3511154 Z M611.0658,43.5671154 C611.0658,37.2311154 615.7458,33.7031154 621.6498,32.8391154 L630.3618,31.5431154 C632.3778,31.2551154 633.0258,30.2471154 633.0258,29.0231154 C633.0258,26.5031154 631.0818,24.4151154 627.0498,24.4151154 C622.8738,24.4151154 620.5698,27.0791154 620.2818,30.1751154 L611.7858,28.3751154 C612.3618,22.8311154 617.4738,16.7111154 626.9778,16.7111154 C638.2098,16.7111154 642.3858,23.0471154 642.3858,30.1751154 L642.3858,47.5991154 C642.3858,49.4711154 642.6018,51.9911154 642.8178,53.2151154 L634.0338,53.2151154 C633.8178,52.2791154 633.6738,50.3351154 633.6738,48.9671154 C631.8738,51.7751154 628.4898,54.2231154 623.2338,54.2231154 C615.6738,54.2231154 611.0658,49.1111154 611.0658,43.5671154 Z M624.6738,46.5031154 C628.7058,46.5031154 632.4498,44.5591154 632.4498,38.2951154 L632.4498,36.7111154 L624.4578,37.9351154 C622.0098,38.2951154 620.0658,39.6631154 620.0658,42.3991154 C620.0658,44.4871154 621.5778,46.5031154 624.6738,46.5031154 Z M685.4978,0.711115421 L685.4978,46.4311154 C685.4978,48.8071154 685.6418,51.3991154 685.7858,52.8391154 L676.6418,52.8391154 C676.4978,52.1191154 676.2818,50.3911154 676.2818,48.7351154 C674.6978,51.5431154 671.0978,53.7031154 666.3458,53.7031154 C656.2658,53.7031154 649.0658,45.7831154 649.0658,35.0551154 C649.0658,24.6871154 656.0498,16.5511154 666.0578,16.5511154 C672.1778,16.5511154 675.0578,19.0711154 676.0658,20.9431154 L676.0658,0.711115421 L685.4978,0.711115421 Z M658.0658,34.6471154 C658.0658,40.9831154 661.8098,44.7271154 666.8498,44.7271154 C671.7458,44.7271154 675.5618,40.9831154 675.5618,34.5751154 C675.5618,28.2391154 671.7458,24.7111154 666.8498,24.7111154 C661.9538,24.7111154 658.0658,28.3111154 658.0658,34.6471154 Z" id="ovaciostanacsado" fill="#231F20"></path>
            <g id="apos" transform="translate(188.000000, 1.000000)" fill="#231F20">
                <polygon id="贸" points="516 9 523.060547 0 531 0 521.595703 9"></polygon>
                <polygon id="贸" points="326 9 333.060547 0 341 0 331.595703 9"></polygon>
                <polygon id="贸" points="100 9 107.060547 0 115 0 105.595703 9"></polygon>
                <polygon id="贸" points="0 9 7.06054688 0 15 0 5.59570312 9"></polygon>
            </g>
            <polygon id="+" fill="#0965BC" points="364.571806 36.8671875 354 36.8671875 354 29.1621094 365.25 29.1621094 365.25 18 372.75 18 372.75 28.6470728"></polygon>
            <polygon id="+" fill="#0965BC" points="365.25 48.0292969 365.25 37.3371334 373.342294 29.1621094 384.029297 29.1621094 384.029297 36.8671875 372.75 36.8671875 372.75 48.0292969"></polygon>
        </g>
    </g>
</svg>